<?xml version="1.0" standalone="no"?>
<!DOCTYPE svg PUBLIC "-//W3C//DTD SVG 20010904//EN"
 "http://www.w3.org/TR/2001/REC-SVG-20010904/DTD/svg10.dtd">
<svg version="1.0" xmlns="http://www.w3.org/2000/svg"
 width="321.000000pt" height="1280.000000pt" viewBox="0 0 321.000000 1280.000000"
 preserveAspectRatio="xMidYMid meet">
<metadata>
Created by potrace 1.15, written by Peter Selinger 2001-2017
</metadata>
<g transform="translate(0.000000,1280.000000) scale(0.100000,-0.100000)"
fill="#000000" stroke="none">
<path d="M2000 12731 c0 -5 7 -11 14 -14 10 -4 13 -1 9 9 -6 15 -23 19 -23 5z"/>
<path d="M2134 12699 c-10 -11 -19 -24 -19 -28 0 -3 -3 -5 -7 -3 -5 1 -17 -7
-27 -17 -33 -33 -101 -10 -101 34 0 18 -24 30 -41 20 -8 -6 -7 -10 2 -16 9 -6
-1 -9 -28 -9 -33 0 -43 -4 -43 -17 0 -15 -2 -15 -19 1 -18 17 -20 17 -29 -1
-10 -17 -11 -17 -17 -1 -4 9 -4 22 0 28 3 5 0 10 -9 10 -8 0 -21 3 -30 6 -9 3
-16 1 -16 -5 0 -6 7 -11 15 -11 8 0 15 -4 15 -10 0 -5 -7 -10 -15 -10 -8 0
-15 -9 -15 -19 0 -23 -4 -26 -47 -35 -29 -7 -32 -5 -38 23 -4 20 -13 31 -24
31 -9 0 -22 5 -29 12 -9 9 -16 8 -30 -5 -10 -9 -25 -17 -33 -17 -12 0 -12 -2
1 -10 9 -5 17 -5 21 1 10 17 39 -2 39 -26 0 -31 -20 -43 -27 -16 -5 21 -23 30
-23 11 0 -5 -11 -10 -25 -10 -14 0 -25 -4 -25 -9 0 -5 -7 -12 -16 -15 -11 -4
-15 -2 -11 8 11 29 -90 29 -114 0 -6 -8 -17 -14 -24 -14 -7 0 -18 -7 -25 -15
-7 -8 -16 -13 -20 -10 -4 3 -7 -3 -6 -13 1 -16 32 -37 49 -34 4 1 7 -3 7 -8 0
-6 -7 -10 -15 -10 -7 0 -18 -7 -23 -16 -7 -13 -13 -14 -31 -5 -22 12 -30 51
-10 51 8 0 8 4 -1 15 -6 8 -8 20 -4 26 4 8 3 9 -5 5 -6 -4 -9 -16 -6 -27 4
-12 2 -19 -7 -19 -9 0 -14 -12 -14 -36 0 -21 2 -32 4 -25 7 21 20 11 18 -14 0
-14 -9 -28 -18 -31 -11 -3 -17 -14 -15 -27 1 -14 -7 -25 -25 -35 -16 -7 -28
-21 -28 -33 0 -12 -7 -19 -19 -19 -11 0 -21 -6 -24 -12 -5 -18 -37 8 -37 31 0
11 -3 12 -8 4 -4 -6 -18 -14 -32 -18 -14 -3 -30 -17 -37 -30 -6 -14 -7 -23 -2
-20 13 8 -2 -59 -15 -67 -11 -8 -46 23 -39 34 5 10 -26 -2 -54 -20 -18 -11
-23 -24 -23 -57 0 -27 6 -47 16 -56 13 -11 13 -15 2 -24 -7 -6 -18 -19 -24
-30 -6 -11 -21 -25 -33 -31 l-21 -11 25 -28 c15 -15 23 -30 20 -34 -4 -3 -18
8 -32 24 -15 18 -23 23 -19 12 3 -10 6 -27 6 -38 0 -14 7 -19 26 -19 22 0 24
-3 19 -22 -4 -13 -11 -27 -15 -32 -5 -5 1 -21 12 -37 18 -24 24 -26 37 -16 12
10 14 9 7 -8 -16 -42 -17 -85 -1 -85 17 0 19 -9 6 -29 -7 -10 -13 -11 -29 -2
-18 10 -23 8 -34 -11 -14 -26 -18 -68 -6 -68 4 0 8 -6 8 -12 1 -15 35 -58 45
-58 4 0 3 6 -2 13 -18 23 -22 44 -7 44 8 0 12 -2 9 -5 -2 -3 1 -14 7 -26 6
-11 13 -34 15 -49 2 -15 14 -40 28 -54 13 -15 21 -30 17 -33 -4 -3 -15 -17
-25 -32 -10 -16 -22 -28 -27 -28 -16 0 -12 28 5 38 12 6 8 11 -20 22 -19 8
-35 20 -35 27 0 11 -4 11 -20 1 -11 -7 -20 -21 -20 -30 0 -10 -4 -18 -10 -18
-5 0 -10 -5 -10 -11 0 -6 8 -8 19 -4 13 4 23 -2 35 -21 23 -34 12 -44 -13 -13
l-19 24 1 -27 c2 -20 10 -29 34 -39 36 -14 39 -19 21 -37 -9 -9 -9 -12 0 -12
7 0 12 5 12 10 0 6 4 10 9 10 12 0 20 -59 9 -66 -14 -9 -9 -24 7 -18 8 4 15 2
15 -3 0 -5 9 -18 19 -30 13 -14 16 -24 10 -34 -8 -11 -13 -9 -31 11 l-21 25 6
-25 c4 -14 7 -31 7 -38 0 -7 5 -10 11 -6 17 10 61 -17 49 -31 -10 -12 -2 -57
9 -50 4 2 6 -15 4 -39 -4 -45 2 -57 48 -86 13 -8 37 -29 53 -46 17 -17 42 -35
56 -39 14 -4 41 -16 60 -26 19 -11 42 -19 51 -19 9 0 22 -7 29 -15 8 -10 21
-13 34 -9 21 7 21 6 2 -15 -11 -11 -27 -21 -36 -21 -21 0 -40 -40 -40 -83 0
-38 -7 -50 -37 -66 -13 -6 -23 -20 -23 -31 0 -27 -79 -41 -225 -38 -118 3
-122 2 -187 -30 -49 -24 -86 -54 -146 -117 -150 -158 -176 -267 -131 -543 25
-158 20 -329 -13 -374 -10 -15 -33 -58 -51 -95 -30 -65 -32 -74 -31 -183 0
-101 5 -128 33 -220 36 -115 37 -174 5 -230 -14 -23 -16 -37 -8 -67 7 -29 6
-44 -6 -65 -12 -22 -13 -33 -3 -59 11 -29 10 -35 -7 -54 -15 -16 -20 -38 -23
-86 -1 -46 -7 -71 -20 -83 -20 -20 -21 -39 -6 -67 8 -15 5 -43 -11 -112 -39
-167 -41 -187 -14 -212 l23 -21 -59 -284 c-33 -156 -82 -368 -110 -470 -79
-288 -107 -400 -120 -470 -7 -36 -29 -107 -48 -158 l-35 -94 51 -101 c89 -174
103 -192 182 -232 59 -30 80 -35 137 -35 74 0 113 7 113 21 0 5 -7 6 -15 3
-10 -4 -15 0 -15 10 0 9 -7 19 -15 22 -19 8 -4 29 35 49 l27 14 5 -109 c6
-122 17 -148 73 -181 29 -17 36 -29 45 -77 86 -423 159 -674 429 -1462 64
-188 88 -277 122 -445 37 -189 42 -232 50 -430 4 -121 12 -244 17 -273 5 -29
7 -63 5 -75 -7 -38 46 -371 82 -511 18 -73 54 -196 79 -273 51 -155 56 -211
31 -323 -9 -36 -20 -121 -26 -190 -12 -148 -20 -183 -94 -400 -51 -150 -122
-311 -271 -615 -69 -143 -119 -329 -101 -383 19 -56 49 -71 164 -82 114 -12
279 0 336 24 21 8 40 27 51 49 9 20 21 39 26 42 24 15 52 93 79 218 16 73 46
202 67 285 39 163 61 192 51 68 -4 -41 0 -132 9 -219 15 -134 15 -165 0 -346
-9 -110 -20 -211 -26 -226 -15 -38 -12 -80 6 -123 10 -20 16 -45 15 -54 -2
-16 20 -18 276 -20 153 -2 283 1 288 5 6 4 11 18 12 30 1 12 4 54 8 92 5 51 3
85 -8 125 -9 30 -19 84 -22 120 -4 36 -18 116 -31 177 -13 62 -29 168 -34 235
-20 230 -40 378 -71 516 -17 75 -32 169 -34 207 -2 39 -10 101 -19 139 -10 37
-18 121 -20 185 -2 64 -11 153 -20 199 -8 46 -18 145 -22 220 l-6 137 56 149
c92 245 153 445 185 608 38 193 39 212 18 236 -13 14 -17 37 -17 101 0 45 -7
141 -16 214 -12 99 -15 178 -11 317 9 298 46 470 206 962 54 167 118 371 141
453 24 83 45 152 46 154 7 9 30 -26 26 -39 -12 -37 41 29 72 89 18 36 63 110
100 164 36 53 82 130 102 169 20 39 45 83 55 97 10 14 26 64 35 110 9 48 34
124 58 180 56 122 66 161 66 242 0 66 0 66 33 76 23 7 31 14 29 29 -13 91 -14
94 -38 94 -33 0 -30 18 4 22 32 4 39 39 8 44 -40 6 -41 14 -42 360 l-1 334 24
6 c40 10 44 33 33 161 -6 65 -13 126 -16 136 -3 9 2 38 12 62 l17 46 -32 39
c-35 44 -39 70 -20 117 12 30 11 34 -13 60 -34 37 -52 143 -36 213 10 43 9 51
-10 77 -17 24 -21 46 -23 143 -1 63 1 160 5 215 8 88 6 110 -13 179 -19 70
-21 94 -15 195 6 111 5 119 -22 191 -28 75 -29 76 -30 320 -1 308 -5 320 -138
458 -90 94 -152 121 -376 167 -74 15 -210 71 -210 85 0 4 11 11 25 14 14 4 25
11 25 16 0 14 -35 30 -64 30 -35 0 -51 32 -37 72 6 17 11 47 11 67 l1 36 16
-30 c30 -56 54 -51 74 15 11 37 30 51 57 43 19 -7 14 -24 -14 -54 -14 -15 -23
-32 -19 -38 8 -14 81 -4 111 15 16 9 24 10 33 1 8 -8 11 -7 11 6 0 19 11 22
27 6 7 -7 15 -6 25 5 12 11 18 12 27 3 9 -9 11 -8 6 6 -5 12 -2 17 9 17 9 0
16 5 16 10 0 6 -4 10 -10 10 -5 0 -10 7 -10 15 0 8 7 15 16 15 14 0 14 3 4 15
-9 11 -10 18 -1 29 6 8 10 20 9 27 -2 9 5 13 17 12 25 -2 55 14 55 31 0 7 10
12 23 11 39 -3 77 15 77 37 0 13 -5 18 -13 15 -8 -3 -20 -1 -28 4 -10 6 -10 9
-1 9 6 0 12 9 12 20 0 11 -5 20 -12 20 -9 0 -9 3 0 12 6 6 13 10 15 7 2 -2 13
-17 25 -33 23 -30 31 -20 10 14 -10 15 -10 22 0 32 11 11 12 10 7 -3 -8 -21
14 -37 25 -19 10 17 -9 48 -34 56 -14 5 -15 8 -6 14 7 4 10 12 6 18 -9 15 19
33 39 26 15 -6 16 -4 6 14 -7 12 -16 22 -21 22 -6 0 -10 4 -10 9 0 16 39 0 43
-18 2 -10 9 -2 20 23 12 27 14 43 7 50 -5 5 -10 21 -9 36 0 22 1 22 8 6 7 -18
8 -18 14 -2 11 27 8 68 -3 61 -5 -3 -10 -1 -10 5 0 7 7 10 15 7 8 -4 17 -2 20
3 4 6 1 10 -4 10 -6 0 -11 4 -11 10 0 5 7 7 15 4 8 -4 15 -2 15 4 0 5 -7 12
-15 16 -13 5 -13 10 2 41 16 34 16 36 -3 50 -18 14 -18 14 7 15 37 0 55 23 34
43 -22 23 -21 169 2 188 15 13 16 11 10 -11 -5 -23 20 -70 37 -70 13 0 5 38
-8 43 -11 5 -13 13 -6 36 7 27 6 30 -18 36 -24 5 -27 11 -29 50 -2 37 1 45 19
51 16 5 18 8 7 15 -8 5 -21 6 -30 4 -14 -5 -16 3 -13 57 2 35 8 64 14 66 6 2
6 10 -1 23 -5 11 -7 24 -4 29 4 6 -1 13 -9 16 -9 3 -13 10 -10 15 3 5 -6 9
-21 9 -29 0 -41 21 -27 46 8 14 6 21 -6 30 -15 11 -15 15 -2 39 9 18 20 25 32
22 10 -3 18 -4 18 -2 0 8 -52 55 -60 55 -6 0 -10 8 -10 18 0 15 -2 15 -11 2
-7 -11 -9 -1 -6 35 3 41 0 53 -16 67 -11 10 -24 15 -28 12 -5 -3 -9 1 -9 9 0
14 -20 27 -41 27 -6 0 -7 -9 -4 -20 5 -14 2 -20 -10 -20 -9 0 -13 5 -10 10 12
20 -17 9 -41 -15 -16 -16 -24 -32 -20 -43 3 -9 -5 -4 -20 12 -25 28 -31 80 -9
82 36 3 84 45 85 74 0 13 -1 13 -10 0 -5 -8 -12 -11 -17 -7 -4 4 -1 17 6 28
15 25 4 41 -12 18 -13 -18 -41 -14 -30 4 4 7 -1 5 -11 -3 -10 -8 -39 -23 -65
-32 -25 -9 -38 -17 -28 -17 18 -1 24 -35 8 -46 -11 -6 -36 34 -33 52 3 14 -21
11 -42 -6 -19 -16 -22 -1 -3 18 10 11 9 12 -2 6 -11 -6 -13 -2 -8 22 5 27 4
30 -13 26 -12 -3 -20 0 -20 7 0 7 -7 10 -15 6 -20 -7 -31 20 -16 38 9 10 7 17
-6 27 -9 8 -14 9 -10 2 8 -13 -1 -43 -14 -43 -4 0 -6 7 -3 15 4 8 1 15 -5 15
-6 0 -11 11 -11 25 0 14 -3 24 -7 23 -5 -1 -18 2 -31 6 -14 4 -28 3 -36 -3
-10 -8 -16 -8 -25 2 -13 16 -5 28 15 20 8 -3 14 1 14 10 0 10 -13 16 -42 19
-24 3 -50 8 -59 12 -10 4 -22 -1 -35 -15z m26 -9 c0 -5 -2 -10 -4 -10 -3 0 -8
5 -11 10 -3 6 -1 10 4 10 6 0 11 -4 11 -10z m-208 -67 c20 -41 16 -66 -11 -80
-21 -10 -27 -9 -38 7 -11 15 -10 23 2 47 8 15 15 34 15 41 0 21 18 13 32 -15z
m28 17 c0 -5 -4 -10 -10 -10 -5 0 -10 5 -10 10 0 6 5 10 10 10 6 0 10 -4 10
-10z m315 -10 c3 -5 1 -10 -4 -10 -6 0 -11 5 -11 10 0 6 2 10 4 10 3 0 8 -4
11 -10z m35 -10 c0 -5 -5 -10 -11 -10 -5 0 -7 5 -4 10 3 6 8 10 11 10 2 0 4
-4 4 -10z m-240 -10 c0 -5 -7 -10 -15 -10 -8 0 -15 5 -15 10 0 6 7 10 15 10 8
0 15 -4 15 -10z m-750 -64 c0 -3 -4 -8 -10 -11 -5 -3 -10 -1 -10 4 0 6 5 11
10 11 6 0 10 -2 10 -4z m1060 -30 c0 -16 -18 -31 -27 -22 -8 8 5 36 17 36 5 0
10 -6 10 -14z m260 -58 c0 -6 -6 -5 -15 2 -8 7 -15 14 -15 16 0 2 7 1 15 -2 8
-4 15 -11 15 -16z m-360 -3 c0 -8 -4 -15 -9 -15 -13 0 -22 16 -14 24 11 11 23
6 23 -9z m160 -44 c0 -5 -9 -11 -20 -14 -20 -5 -26 3 -13 16 9 10 33 8 33 -2z
m-1269 -104 c-10 -9 -11 -8 -5 6 3 10 9 15 12 12 3 -3 0 -11 -7 -18z m1650
-102 c-1 -15 -24 -12 -29 3 -3 9 2 13 12 10 10 -1 17 -7 17 -13z m-1931 -84
c-5 -10 -6 -22 -2 -26 4 -5 1 -5 -5 -1 -14 8 -17 38 -7 49 13 13 24 -5 14 -22z
m84 4 c10 -7 15 -19 11 -25 -5 -8 -13 -5 -26 9 -30 32 -21 43 15 16z m1854
-50 c0 -14 -4 -25 -9 -25 -5 0 -9 14 -9 31 0 16 4 28 9 25 5 -3 9 -17 9 -31z
m-1896 6 c-2 -9 4 -12 15 -9 10 3 27 -4 37 -14 19 -18 19 -18 -15 -12 -35 7
-69 30 -69 46 0 5 8 8 18 6 9 -2 16 -10 14 -17z m109 -11 c10 -6 19 -16 19
-22 0 -15 -31 -37 -53 -38 -16 0 -17 2 -4 15 9 8 13 24 10 35 -6 23 0 25 28
10z m-111 -34 c0 -8 -4 -18 -10 -21 -5 -3 -10 3 -10 14 0 12 5 21 10 21 6 0
10 -6 10 -14z m1948 -41 c5 -22 -13 -34 -40 -28 -23 7 -18 29 7 25 10 -2 14 1
10 7 -3 6 -13 11 -21 11 -8 0 -14 4 -14 9 0 17 55 -5 58 -24z m-1973 -36 c8
-25 -2 -86 -15 -94 -6 -4 -10 1 -10 9 0 9 -4 16 -10 16 -5 0 -10 20 -10 45 0
38 3 45 19 45 11 0 23 -9 26 -21z m81 -30 c-2 -23 -10 -47 -17 -53 -9 -8 -10
-6 -6 12 4 19 2 22 -10 17 -9 -3 -20 0 -25 7 -14 23 -9 28 23 23 28 -5 31 -3
26 15 -3 11 -1 20 4 20 6 0 8 -19 5 -41z m1924 -309 c0 -5 -2 -10 -4 -10 -3 0
-8 5 -11 10 -3 6 -1 10 4 10 6 0 11 -4 11 -10z m-40 -90 c0 -5 -5 -10 -11 -10
-5 0 -7 5 -4 10 3 6 8 10 11 10 2 0 4 -4 4 -10z m-1831 -366 c2 -2 -2 -11 -9
-19 -19 -23 -54 -15 -58 12 -3 21 0 22 30 16 18 -3 35 -7 37 -9z m-24 -84 c-6
-17 -9 -19 -22 -9 -13 11 -13 14 3 26 22 16 28 11 19 -17z m1736 2 c22 -26 2
-52 -39 -52 -40 0 -48 24 -15 50 31 25 35 25 54 2z m-46 -82 c-3 -5 -15 -10
-26 -10 -11 0 -17 5 -14 10 3 6 15 10 26 10 11 0 17 -4 14 -10z m-125 -190 c0
-5 -2 -10 -4 -10 -3 0 -8 5 -11 10 -3 6 -1 10 4 10 6 0 11 -4 11 -10z m0 -29
c0 -13 -28 -22 -35 -11 -3 4 1 11 7 13 20 8 28 8 28 -2z m-413 -43 c-3 -8 -6
-5 -6 6 -1 11 2 17 5 13 3 -3 4 -12 1 -19z m39 -65 c-14 -14 -28 16 -21 44 l8
28 10 -33 c5 -18 7 -35 3 -39z m84 -1 c0 -10 -7 -27 -15 -38 -13 -16 -16 -17
-25 -4 -12 19 -13 43 -1 36 5 -3 14 1 21 9 16 20 20 19 20 -3z m155 -2094 c9
-84 18 -200 22 -258 3 -62 11 -114 19 -127 21 -33 30 -156 14 -193 -11 -27
-10 -34 14 -70 17 -27 26 -53 26 -81 0 -53 57 -307 76 -336 10 -16 24 -23 47
-23 l32 0 73 -303 c40 -166 73 -307 72 -313 0 -11 -30 -29 -35 -22 -1 2 -19
91 -40 198 -20 107 -44 209 -52 225 -30 62 -73 136 -124 211 -31 46 -48 79
-41 82 21 7 13 31 -32 89 -24 32 -46 68 -50 80 -4 12 -16 25 -28 28 -14 5 -17
10 -9 18 19 19 12 36 -19 52 -44 23 -55 50 -39 97 l12 39 -51 47 c-29 27 -52
56 -52 65 0 9 -13 23 -30 32 -40 21 -53 47 -39 79 9 18 9 33 0 57 -19 55 -13
111 19 176 16 33 34 84 40 114 6 30 25 79 44 109 18 30 36 73 40 95 18 108 15
106 47 43 25 -49 31 -80 44 -210z m-1899 -1375 c4 -15 2 -50 -5 -77 -7 -28
-16 -79 -20 -112 -5 -34 -11 -65 -14 -71 -3 -5 -2 -54 3 -108 6 -72 3 -151 -9
-282 -9 -100 -19 -184 -22 -188 -4 -3 -18 -3 -33 1 -35 8 -47 55 -45 176 1 68
-5 114 -21 173 -12 44 -24 89 -27 101 -3 12 10 57 27 100 47 115 142 314 152
314 4 0 11 -12 14 -27z m2304 -403 c0 -5 -9 -10 -20 -10 -11 0 -20 5 -20 10 0
6 9 10 20 10 11 0 20 -4 20 -10z m20 -149 c0 -10 -22 -31 -32 -31 -4 0 -8 11
-8 24 0 19 4 23 20 19 11 -3 20 -8 20 -12z m-2586 -238 c9 -26 16 -60 16 -77
l0 -31 -25 40 c-24 39 -35 115 -16 115 5 0 16 -21 25 -47z m196 -103 c0 -38
-1 -39 -20 -28 -24 16 -25 26 -3 50 22 25 23 24 23 -22z m0 -90 c0 -11 -7 -20
-15 -20 -18 0 -19 6 -2 25 16 19 17 18 17 -5z m2255 -199 c-13 -13 -15 -13
-15 -1 0 8 3 26 7 39 l6 25 9 -24 c6 -17 4 -28 -7 -39z"/>
<path d="M1990 12691 c0 -6 4 -13 10 -16 6 -3 7 1 4 9 -7 18 -14 21 -14 7z"/>
<path d="M2479 12507 c15 -19 76 -23 86 -7 4 6 -6 10 -22 10 -15 0 -39 3 -53
7 -22 6 -24 5 -11 -10z"/>
<path d="M1137 12338 c-8 -30 0 -36 18 -12 18 24 19 34 1 34 -7 0 -16 -10 -19
-22z"/>
<path d="M1000 12321 c0 -5 -3 -16 -6 -25 -4 -10 -1 -16 7 -16 7 0 9 3 6 7 -4
3 -2 12 4 19 7 8 7 14 -1 19 -5 3 -10 2 -10 -4z"/>
<path d="M3010 11749 c0 -5 5 -7 10 -4 6 3 10 8 10 11 0 2 -4 4 -10 4 -5 0
-10 -5 -10 -11z"/>
<path d="M2987 11743 c-4 -3 -7 -11 -7 -17 0 -6 5 -5 12 2 6 6 9 14 7 17 -3 3
-9 2 -12 -2z"/>
<path d="M801 11643 c-1 -12 4 -25 9 -28 12 -7 12 2 0 30 -8 19 -9 19 -9 -2z"/>
<path d="M2950 11530 c0 -5 5 -10 10 -10 6 0 10 5 10 10 0 6 -4 10 -10 10 -5
0 -10 -4 -10 -10z"/>
<path d="M2946 11303 c-6 -14 -5 -15 5 -6 7 7 10 15 7 18 -3 3 -9 -2 -12 -12z"/>
<path d="M2880 11110 c0 -5 5 -10 11 -10 5 0 7 5 4 10 -3 6 -8 10 -11 10 -2 0
-4 -4 -4 -10z"/>
<path d="M940 11040 c0 -5 5 -10 10 -10 6 0 10 5 10 10 0 6 -4 10 -10 10 -5 0
-10 -4 -10 -10z"/>
<path d="M2853 10954 c-6 -13 -7 -24 -3 -24 9 0 25 39 18 45 -2 2 -8 -7 -15
-21z"/>
<path d="M2526 10594 c-3 -8 -11 -12 -17 -8 -8 4 -9 3 -5 -4 12 -19 36 -14 36
8 0 24 -6 26 -14 4z"/>
</g>
</svg>
