<?xml version="1.0" standalone="no"?>
<!DOCTYPE svg PUBLIC "-//W3C//DTD SVG 20010904//EN"
 "http://www.w3.org/TR/2001/REC-SVG-20010904/DTD/svg10.dtd">
<svg version="1.0" xmlns="http://www.w3.org/2000/svg"
 width="722.000000pt" height="1280.000000pt" viewBox="0 0 722.000000 1280.000000"
 preserveAspectRatio="xMidYMid meet">
<metadata>
Created by potrace 1.15, written by Peter Selinger 2001-2017
</metadata>
<g transform="translate(0.000000,1280.000000) scale(0.100000,-0.100000)"
fill="#000000" stroke="none">
<path d="M4027 12781 c-63 -21 -98 -41 -139 -79 l-28 -25 -34 35 c-73 75 -189
99 -284 58 -56 -24 -118 -85 -134 -131 -9 -27 -12 -28 -27 -16 -56 50 -172 79
-263 67 -76 -11 -118 -31 -182 -89 -31 -28 -66 -51 -77 -51 -49 0 -119 -68
-119 -115 0 -23 -13 -17 -35 17 -29 46 -67 70 -119 75 -87 10 -178 -46 -193
-118 l-5 -29 -35 31 c-20 17 -46 35 -60 40 -61 23 -157 -2 -196 -52 l-22 -29
-49 15 c-140 42 -321 -22 -374 -131 -13 -28 -21 -34 -47 -34 -101 0 -205 -72
-228 -157 -11 -42 -12 -43 -52 -43 -127 -2 -228 -98 -228 -217 0 -53 0 -53
-32 -53 -82 0 -157 -49 -192 -128 -25 -54 -27 -99 -7 -168 5 -19 2 -21 -19
-17 -43 8 -135 -25 -179 -65 -58 -52 -80 -107 -83 -207 -1 -45 -5 -87 -8 -92
-4 -6 -2 -25 3 -44 9 -29 7 -36 -14 -54 -42 -35 -57 -70 -57 -129 0 -30 5 -64
11 -75 7 -14 8 -27 1 -40 -6 -10 -12 -35 -14 -55 -3 -29 -11 -42 -35 -57 -46
-27 -68 -70 -77 -147 -16 -135 -5 -185 54 -235 28 -23 30 -29 25 -74 -4 -33
-1 -60 9 -86 14 -33 14 -41 0 -74 -39 -96 26 -193 130 -193 l44 0 -24 -47
c-34 -67 -29 -151 13 -220 22 -35 28 -55 23 -68 -16 -40 -9 -101 17 -153 20
-40 23 -55 15 -71 -15 -28 -14 -105 3 -144 17 -41 74 -91 119 -106 20 -7 43
-23 52 -37 9 -14 32 -32 50 -41 30 -14 35 -22 35 -51 0 -40 34 -106 65 -126
50 -33 114 -37 177 -11 13 5 20 -1 31 -27 16 -39 67 -85 103 -94 14 -4 40 -4
58 -1 31 5 34 3 39 -23 15 -75 129 -150 227 -150 74 0 117 13 176 55 27 19 57
35 67 35 47 0 107 60 116 117 l6 34 54 -83 c74 -113 242 -278 354 -347 143
-88 396 -179 506 -182 l36 -1 -35 -8 c-19 -5 -73 -14 -119 -20 -169 -23 -387
-112 -540 -220 -207 -147 -388 -398 -482 -671 -18 -52 -33 -95 -35 -97 -1 -2
-28 10 -60 26 -47 24 -182 77 -273 108 -11 4 -10 8 4 24 80 89 51 309 -76 563
-73 145 -120 217 -178 268 -154 137 -236 108 -214 -76 6 -44 9 -81 8 -82 0 -1
-35 45 -76 102 -64 91 -81 108 -129 131 -30 15 -76 29 -101 32 -42 4 -48 2
-67 -25 -11 -16 -22 -49 -24 -74 l-3 -44 -24 41 c-27 47 -45 58 -129 75 -73
15 -115 2 -139 -44 -21 -42 -12 -146 19 -195 l22 -36 -37 22 c-111 69 -167 39
-167 -89 0 -49 7 -73 40 -139 l40 -80 -47 30 c-79 50 -122 37 -144 -43 -19
-73 -7 -132 50 -247 77 -153 134 -234 230 -330 130 -129 245 -179 381 -166
l65 6 24 -68 c34 -97 114 -254 179 -352 74 -110 254 -292 356 -358 152 -99
338 -158 530 -168 138 -8 198 6 351 81 127 62 221 135 285 224 24 33 46 59 48
57 2 -2 0 -192 -4 -421 -6 -367 -9 -420 -23 -434 -9 -9 -270 -232 -579 -495
-309 -264 -562 -483 -562 -487 0 -3 128 -86 285 -184 157 -97 285 -179 285
-182 0 -3 -16 -25 -35 -48 l-35 -43 28 -10 c15 -6 97 -34 182 -62 85 -28 168
-56 183 -62 l28 -11 -36 -37 -37 -38 34 -10 c18 -6 90 -25 161 -43 70 -17 127
-35 127 -38 0 -3 7 -44 15 -91 9 -47 20 -134 25 -195 21 -250 100 -602 222
-990 35 -114 39 -134 29 -160 -38 -96 -96 -272 -115 -350 l-23 -90 -124 -17
c-1077 -148 -1750 -397 -1899 -704 -34 -68 -34 -170 0 -238 167 -342 1050
-633 2250 -740 361 -33 567 -41 1025 -41 458 0 664 8 1025 41 1064 95 1900
339 2172 633 77 82 102 139 102 226 0 87 -25 144 -102 226 -155 168 -495 321
-982 444 -120 30 -395 87 -517 106 l-81 12 -42 113 -43 113 42 208 c51 256 95
518 121 726 17 129 22 239 26 605 3 246 9 450 12 454 4 3 111 48 237 98 127
51 236 95 243 99 9 5 -1 25 -34 70 -25 35 -42 67 -37 71 4 4 92 64 195 132
l188 125 -375 343 -375 343 47 51 c135 151 263 449 299 701 4 28 17 78 30 111
49 131 59 211 58 469 -1 386 -43 586 -179 860 -135 271 -328 467 -585 595
-133 65 -252 97 -475 126 l-50 7 68 23 c225 77 484 277 617 477 l44 67 12 -29
c36 -85 166 -85 196 0 5 16 17 29 26 29 10 0 36 9 59 20 54 24 83 76 66 120
l-11 28 52 0 c77 -1 136 36 156 96 l10 31 78 0 c56 0 88 6 117 20 86 43 129
209 80 310 -11 25 -19 63 -20 100 0 35 -8 74 -18 94 -16 32 -16 34 6 65 19 26
22 45 23 121 0 49 -3 104 -7 122 -8 36 -3 39 25 18 31 -24 117 -19 157 8 41
27 69 79 69 129 0 20 5 40 11 44 18 11 49 86 49 119 0 51 -19 100 -53 140
l-34 39 29 45 c53 85 31 181 -54 234 -26 17 -48 36 -48 44 0 45 -69 127 -123
146 -17 6 -16 10 9 42 63 83 72 187 23 283 -26 53 -28 64 -18 84 35 65 28 168
-16 238 -30 48 -94 96 -146 110 -30 8 -36 14 -32 30 22 84 -71 188 -186 206
l-40 6 27 36 c21 28 27 48 30 102 7 111 -45 183 -159 225 -56 20 -64 26 -76
60 -32 94 -131 162 -221 153 -26 -3 -53 -7 -61 -9 -10 -3 -18 9 -24 33 -14 56
-76 120 -148 153 -50 22 -77 28 -138 28 -42 0 -85 -2 -96 -6 -15 -5 -26 3 -47
33 -41 59 -97 84 -188 85 -64 0 -82 -4 -122 -28 -26 -15 -52 -36 -58 -46 -9
-18 -11 -18 -51 2 -41 20 -131 28 -179 15 -22 -5 -28 -1 -46 35 -24 49 -93
105 -161 131 -72 27 -195 31 -266 7z m311 -9413 c11 -73 23 -176 27 -228 16
-261 101 -700 206 -1062 21 -75 39 -144 39 -154 0 -10 -10 -45 -22 -77 l-23
-59 -45 6 c-25 3 -210 9 -412 12 l-366 7 -22 76 c-25 85 -99 290 -110 306 -4
6 10 91 31 190 39 183 89 467 110 630 7 50 13 162 13 250 l1 160 224 -4 224
-3 -7 41 -6 41 58 0 59 0 21 -132z"/>
</g>
</svg>
