<?xml version="1.0" standalone="no"?>
<!DOCTYPE svg PUBLIC "-//W3C//DTD SVG 20010904//EN"
 "http://www.w3.org/TR/2001/REC-SVG-20010904/DTD/svg10.dtd">
<svg version="1.0" xmlns="http://www.w3.org/2000/svg"
 width="640.000000pt" height="1280.000000pt" viewBox="0 0 640.000000 1280.000000"
 preserveAspectRatio="xMidYMid meet">
<metadata>
Created by potrace 1.15, written by Peter Selinger 2001-2017
</metadata>
<g transform="translate(0.000000,1280.000000) scale(0.100000,-0.100000)"
fill="#000000" stroke="none">
<path d="M3685 12790 c-128 -31 -203 -117 -240 -273 -28 -117 -15 -314 29
-434 14 -40 14 -43 -2 -43 -45 0 -100 -25 -133 -60 -53 -55 -73 -124 -66 -222
l5 -78 -56 0 c-34 0 -74 -8 -98 -19 -89 -40 -160 -147 -171 -257 -5 -51 -8
-55 -27 -49 -47 14 -116 17 -151 5 -125 -41 -214 -239 -187 -413 6 -34 13 -70
17 -79 6 -16 -1 -18 -83 -18 -105 0 -237 -21 -314 -51 -114 -43 -204 -137
-228 -239 -23 -96 7 -153 120 -230 61 -41 110 -93 110 -115 0 -12 -15 -36 -93
-149 -58 -83 -26 -164 78 -201 69 -25 95 -44 95 -68 0 -11 -14 -63 -31 -116
-29 -90 -30 -100 -19 -150 10 -43 22 -64 61 -103 55 -55 90 -72 131 -63 31 7
78 -16 78 -38 0 -6 -23 -46 -51 -87 -45 -65 -50 -79 -46 -113 8 -58 48 -101
135 -145 42 -21 92 -44 111 -50 l34 -12 -27 -21 c-63 -49 -78 -153 -32 -214
15 -19 37 -40 49 -46 12 -7 23 -13 25 -14 1 -1 -10 -24 -25 -51 -22 -40 -27
-60 -27 -116 1 -59 7 -79 40 -146 21 -42 40 -80 42 -83 1 -3 -47 -10 -108 -16
-96 -10 -115 -15 -146 -38 -20 -15 -43 -43 -51 -62 -16 -41 -18 -137 -4 -242
5 -40 8 -79 6 -85 -2 -6 -6 -24 -10 -40 -6 -30 -6 -29 -46 33 -41 65 -110 153
-294 376 -178 216 -268 361 -299 482 -22 85 -20 141 9 225 13 40 36 129 51
197 14 69 34 142 45 162 10 20 46 61 80 90 80 70 105 118 90 170 -29 98 -115
90 -297 -26 -193 -123 -307 -142 -387 -61 -17 18 -58 80 -90 137 -102 183
-165 237 -240 205 -92 -38 -92 -199 0 -379 22 -44 23 -49 6 -42 -54 23 -166
46 -224 48 -89 1 -119 -17 -119 -75 0 -62 30 -100 130 -163 96 -61 130 -94
130 -130 0 -27 -24 -49 -118 -109 -40 -26 -84 -58 -98 -73 -44 -47 -27 -100
43 -137 48 -24 99 -29 201 -16 90 11 101 10 152 -9 180 -68 324 -282 495 -741
111 -298 132 -344 257 -585 84 -165 125 -233 164 -275 l52 -55 73 0 c81 0 139
16 259 71 41 19 77 35 80 35 3 -1 7 -47 10 -103 9 -155 52 -218 150 -218 22 0
56 6 75 14 45 19 129 98 145 136 7 17 15 30 18 30 4 0 22 -15 42 -34 46 -44
107 -76 146 -76 68 0 135 73 154 168 20 102 31 133 46 139 22 8 61 -33 80 -84
15 -38 16 -56 6 -134 -6 -50 -16 -97 -22 -104 -8 -9 -27 -12 -63 -8 -44 4 -63
0 -122 -27 -38 -17 -89 -50 -113 -73 l-43 -42 -97 4 c-237 11 -260 9 -344 -31
-190 -90 -292 -194 -349 -354 -16 -43 -23 -93 -26 -185 -7 -164 7 -250 102
-624 87 -341 95 -386 98 -570 3 -158 12 -187 73 -255 50 -55 97 -78 234 -112
154 -38 191 -58 285 -152 67 -68 232 -290 250 -338 4 -9 -10 -18 -42 -26 -71
-19 -219 -92 -306 -150 -90 -61 -167 -124 -304 -248 -117 -107 -151 -127 -211
-126 -43 0 -52 5 -152 78 -106 77 -233 -26 -498 -405 -134 -191 -151 -207
-306 -284 -117 -58 -142 -75 -191 -129 -78 -86 -187 -253 -225 -345 -46 -109
-50 -175 -16 -248 88 -193 292 -369 419 -363 l49 2 19 -53 c64 -184 248 -415
389 -491 52 -27 76 -34 121 -34 67 -1 103 21 167 100 37 47 50 56 110 73 37
11 78 28 91 37 34 25 51 74 51 154 0 134 -62 269 -221 477 -45 59 -88 122 -95
140 -22 52 -17 104 14 154 43 66 99 113 287 239 186 125 255 183 290 245 32
57 38 90 24 149 -14 64 -6 84 53 127 35 25 163 72 258 94 l25 6 1 -183 c0
-199 17 -349 62 -558 18 -88 26 -153 26 -220 l-1 -95 -82 -85 c-45 -47 -89
-99 -97 -117 -24 -55 -18 -186 18 -361 46 -227 45 -321 -10 -557 -22 -99 -46
-211 -52 -250 -12 -76 -15 -253 -5 -285 6 -19 2 -20 -92 -20 -208 0 -583 -25
-983 -66 -334 -34 -510 -71 -510 -109 0 -43 110 -78 425 -134 498 -90 928
-142 1510 -183 273 -19 1122 -16 1475 5 427 26 502 39 594 105 71 49 73 77 7
116 -36 21 -347 78 -715 131 -131 19 -240 36 -242 38 -2 2 1 19 6 38 6 19 11
72 11 118 1 154 -46 213 -287 356 -207 124 -265 195 -280 345 -3 31 3 138 15
242 25 222 26 333 6 411 -20 79 -46 114 -142 191 -111 89 -111 89 -89 343 9
109 25 322 36 473 23 323 22 318 62 440 32 100 38 170 24 270 -7 47 -2 76 29
195 36 139 37 141 25 230 -7 50 -30 159 -51 244 -21 85 -38 155 -36 157 1 1
29 9 62 19 84 24 147 58 182 99 60 68 53 134 -27 239 -127 168 -149 251 -161
622 -9 305 -22 404 -64 510 -27 66 -27 70 -10 80 59 33 86 71 106 145 11 43
32 90 48 110 27 35 169 147 232 184 l32 19 -6 -84 c-13 -185 24 -410 122 -751
104 -357 111 -389 127 -554 20 -217 35 -265 98 -332 63 -68 131 -89 315 -101
119 -8 139 -12 190 -39 184 -97 219 -113 267 -119 44 -5 55 -2 73 16 35 35 27
64 -39 134 -33 36 -60 67 -60 71 0 4 35 4 79 0 100 -8 230 10 293 42 44 22 98
83 98 111 0 6 -10 28 -21 48 -17 28 -20 47 -17 85 8 76 -7 85 -132 76 -55 -3
-106 -7 -112 -9 -6 -1 -17 16 -23 37 -18 63 -30 64 -129 12 -110 -58 -143 -59
-266 -11 -50 19 -125 41 -167 50 -87 18 -116 39 -135 94 -8 25 -12 159 -13
441 -2 421 -6 501 -31 635 -21 110 -40 174 -85 288 -22 53 -39 99 -39 101 0
10 160 95 190 101 78 16 110 47 110 105 0 38 -15 68 -97 191 -79 119 -85 149
-49 238 14 36 26 78 26 94 0 17 -20 73 -44 126 -56 122 -61 142 -85 342 -40
320 -81 444 -174 526 -71 62 -154 67 -301 18 l-79 -26 -45 28 c-35 21 -55 45
-84 98 -21 39 -38 73 -38 77 0 3 58 4 128 1 109 -5 138 -3 188 13 93 29 122
67 251 327 139 281 154 321 160 458 7 132 -13 418 -33 464 -23 56 -18 72 26
95 77 39 99 114 59 200 -46 98 -51 121 -34 147 9 13 40 39 70 58 67 44 85 69
85 121 0 41 -37 110 -93 172 -25 27 -14 55 22 60 11 2 21 8 21 13 0 5 20 32
45 58 38 41 45 54 45 90 0 80 -44 149 -113 181 l-38 17 44 27 c161 94 184 360
41 486 -60 52 -90 60 -229 60 -70 0 -135 5 -146 10 -33 18 -22 53 41 126 73
83 105 145 105 201 0 86 -70 135 -202 141 l-81 4 5 91 c14 243 -111 444 -315
507 -64 20 -151 24 -207 10z"/>
</g>
</svg>
