<?xml version="1.0" standalone="no"?>
<!DOCTYPE svg PUBLIC "-//W3C//DTD SVG 20010904//EN"
 "http://www.w3.org/TR/2001/REC-SVG-20010904/DTD/svg10.dtd">
<svg version="1.0" xmlns="http://www.w3.org/2000/svg"
 width="720.000000pt" height="1280.000000pt" viewBox="0 0 720.000000 1280.000000"
 preserveAspectRatio="xMidYMid meet">
<metadata>
Created by potrace 1.15, written by Peter Selinger 2001-2017
</metadata>
<g transform="translate(0.000000,1280.000000) scale(0.100000,-0.100000)"
fill="#000000" stroke="none">
<path d="M3055 12646 c-117 -31 -233 -72 -383 -135 l-122 -51 -649 0 -650 0
-68 -60 c-84 -75 -205 -159 -343 -237 -284 -160 -431 -282 -541 -446 -154
-231 -199 -403 -199 -760 1 -237 16 -418 50 -594 5 -29 14 -74 19 -100 5 -27
23 -110 40 -186 17 -76 31 -147 31 -157 0 -11 4 -28 9 -38 5 -9 22 -73 39
-142 16 -69 53 -210 82 -313 29 -103 50 -191 46 -194 -3 -4 -19 3 -34 15 -47
39 -105 62 -155 62 -94 0 -134 -76 -124 -236 6 -92 31 -204 62 -279 93 -223
283 -483 395 -540 53 -27 51 -22 95 -195 37 -144 67 -223 140 -376 164 -340
496 -735 795 -946 74 -52 159 -109 189 -125 53 -31 53 -31 25 -37 -72 -15
-217 -35 -224 -31 -9 6 -333 -31 -394 -45 -64 -14 -77 -22 -171 -98 -124 -102
-279 -257 -369 -372 -254 -323 -380 -608 -423 -960 -14 -115 -15 -155 -5 -275
14 -161 46 -320 92 -450 44 -127 156 -351 237 -475 75 -114 100 -143 114 -135
5 3 28 38 51 78 47 82 144 239 218 354 28 43 50 88 50 99 0 12 -18 59 -39 105
-53 113 -87 219 -117 369 -23 114 -25 141 -21 315 3 153 8 205 25 267 31 114
69 202 131 306 51 86 143 202 160 202 4 0 13 -75 20 -167 6 -93 16 -192 21
-222 6 -30 10 -72 10 -93 0 -21 4 -57 9 -80 15 -66 99 -520 120 -648 19 -109
32 -199 51 -355 5 -38 12 -85 16 -103 l7 -34 -158 4 -157 3 -134 -205 c-74
-113 -137 -215 -140 -227 -16 -60 58 -167 201 -293 53 -47 109 -92 123 -101
190 -114 273 -159 296 -159 l26 0 0 -252 c0 -516 -53 -980 -171 -1503 -68
-302 -209 -746 -242 -767 -7 -4 -35 -14 -63 -23 -55 -16 -135 -79 -159 -126
-8 -15 -20 -51 -26 -79 -21 -98 26 -166 137 -198 23 -7 60 -12 82 -12 22 0 44
-5 47 -10 8 -14 645 -14 645 0 0 6 24 10 54 10 108 0 246 37 298 80 34 28 38
36 38 80 0 27 -9 111 -19 187 -58 417 -76 679 -76 1083 0 371 6 481 36 715 40
301 124 607 217 790 33 67 132 235 137 235 4 0 78 -117 107 -170 114 -201 223
-586 257 -905 6 -55 15 -144 21 -197 13 -127 13 -768 0 -928 -36 -422 -62
-637 -92 -757 -23 -92 46 -153 210 -189 77 -17 133 -19 497 -19 459 0 491 4
562 69 29 27 36 41 40 82 13 130 -67 234 -212 280 l-53 17 -75 226 c-85 253
-121 383 -171 616 -81 371 -129 740 -147 1125 -14 303 -6 790 17 945 8 61 20
202 25 315 9 201 17 285 38 445 6 44 14 100 16 125 3 25 10 68 15 95 6 28 19
107 30 178 11 70 30 171 41 225 61 294 93 533 105 780 4 61 10 112 14 112 4 0
52 -42 107 -93 154 -145 459 -412 502 -439 14 -9 75 -26 135 -37 101 -20 113
-20 167 -6 68 17 118 41 209 100 290 187 791 701 1073 1102 73 104 147 241
147 273 0 34 -84 89 -274 180 -79 37 -163 81 -187 96 l-43 27 -526 -532 c-289
-292 -529 -532 -534 -531 -5 0 -32 17 -60 38 -28 21 -69 49 -91 62 -22 13 -49
31 -60 41 -11 9 -81 52 -155 94 -113 65 -250 154 -399 261 -21 15 -64 25 -167
39 -77 10 -166 21 -199 26 -33 4 -93 11 -132 15 l-73 7 0 38 c0 20 -2 43 -4
51 -3 8 34 41 92 83 118 85 366 330 486 480 235 294 383 577 456 875 40 163
43 170 97 221 227 216 393 553 393 798 0 109 -12 153 -52 187 -29 24 -38 26
-91 21 -32 -3 -69 -12 -82 -21 -13 -9 -26 -16 -28 -16 -2 0 24 104 59 231 118
429 200 819 235 1119 17 143 22 515 9 615 -32 240 -168 501 -348 665 -90 83
-161 133 -328 231 -302 176 -403 255 -547 428 -41 49 -83 89 -103 97 -48 20
-136 16 -239 -10z m-610 -5586 c39 -6 23 -7 -70 -7 -79 0 -106 2 -80 7 54 10
90 10 150 0z"/>
<path d="M6046 8680 c-34 -11 -73 -45 -91 -80 -7 -14 -27 -79 -45 -145 -18
-66 -41 -147 -51 -181 -11 -33 -42 -150 -70 -260 -51 -206 -76 -284 -90 -284
-15 0 -28 106 -28 225 0 85 -5 140 -18 190 -18 69 -19 70 -73 99 -107 58 -194
36 -242 -62 -19 -39 -23 -63 -23 -142 0 -90 2 -100 44 -195 69 -158 73 -177
75 -400 1 -181 4 -205 24 -256 43 -109 121 -169 239 -185 44 -5 56 -12 83 -45
35 -45 125 -94 199 -110 64 -14 149 9 229 61 80 51 197 181 260 286 29 49 143
202 253 339 110 138 214 273 230 300 59 102 28 186 -91 245 -25 12 -47 24 -48
25 -2 2 15 35 38 74 71 120 66 181 -24 251 -45 34 -60 40 -102 40 -27 0 -56
-4 -64 -9 -22 -15 -30 -3 -18 24 24 52 -24 135 -98 173 -95 48 -168 31 -220
-52 -16 -25 -32 -45 -36 -43 -4 1 -17 18 -30 37 -39 59 -148 100 -212 80z"/>
</g>
</svg>
