<?xml version="1.0" standalone="no"?>
<!DOCTYPE svg PUBLIC "-//W3C//DTD SVG 20010904//EN"
 "http://www.w3.org/TR/2001/REC-SVG-20010904/DTD/svg10.dtd">
<svg version="1.0" xmlns="http://www.w3.org/2000/svg"
 width="771.000000pt" height="1280.000000pt" viewBox="0 0 771.000000 1280.000000"
 preserveAspectRatio="xMidYMid meet">
<metadata>
Created by potrace 1.15, written by Peter Selinger 2001-2017
</metadata>
<g transform="translate(0.000000,1280.000000) scale(0.100000,-0.100000)"
fill="#000000" stroke="none">
<path d="M4955 12795 c-5 -2 -64 -8 -130 -15 -367 -37 -597 -97 -850 -221
-114 -57 -226 -126 -460 -288 -223 -154 -356 -262 -505 -411 -105 -104 -143
-152 -231 -285 -251 -379 -415 -722 -559 -1160 -81 -248 -126 -286 -369 -310
-226 -23 -259 -50 -335 -266 -54 -154 -82 -285 -96 -456 -23 -265 25 -595 126
-871 20 -53 38 -105 41 -116 4 -11 -20 -71 -60 -155 -240 -497 -289 -596 -341
-681 -32 -52 -86 -131 -121 -175 -120 -154 -311 -315 -373 -315 -58 0 -186
-41 -274 -87 -100 -53 -190 -123 -315 -246 l-81 -80 -7 -606 c-9 -810 -9 -815
4 -901 27 -172 79 -342 174 -565 32 -77 75 -185 94 -239 19 -55 43 -113 55
-129 18 -25 22 -27 35 -14 27 27 35 103 42 397 7 282 8 293 23 260 31 -68 49
-203 93 -690 9 -96 20 -204 26 -240 48 -317 136 -662 228 -892 34 -86 136
-291 175 -353 l25 -40 1 143 c0 294 -59 674 -205 1319 -19 84 -35 161 -35 170
1 17 2 17 15 -1 43 -57 193 -461 210 -566 4 -27 52 -133 123 -270 148 -285
217 -425 254 -519 75 -186 103 -393 78 -579 -10 -83 -10 -114 4 -212 93 -682
102 -1267 26 -1690 -19 -104 -71 -325 -86 -363 -10 -27 60 -37 263 -37 l192 0
11 54 c18 88 28 378 18 566 -14 285 -47 683 -68 824 -11 72 -33 246 -50 386
-59 500 -98 730 -164 955 -38 132 -111 321 -156 402 -15 29 -25 53 -21 53 5 0
62 -66 129 -148 192 -235 337 -362 456 -397 53 -16 106 -20 106 -7 -1 4 -24
25 -52 47 -141 111 -491 483 -537 573 -41 78 137 -60 246 -191 96 -117 185
-173 218 -140 18 18 19 25 2 66 -17 40 -82 99 -144 131 -37 18 -54 35 -71 69
-25 51 -28 77 -8 77 7 0 54 -20 102 -45 49 -25 95 -45 102 -45 18 0 15 31 -8
68 -25 40 -25 50 -2 30 9 -9 49 -31 87 -51 284 -141 640 -161 839 -47 110 62
198 187 225 320 9 44 24 70 72 128 135 163 209 173 239 30 10 -46 11 -123 6
-326 -20 -704 -20 -705 20 -750 l24 -27 25 28 c25 28 37 63 93 277 45 167 51
227 62 563 10 309 22 422 59 530 26 75 74 162 115 211 l34 39 45 -12 c66 -16
111 -14 129 7 8 9 36 61 62 114 65 132 70 135 90 49 28 -125 20 -276 -36 -651
-20 -137 -21 -184 -23 -830 -1 -563 -4 -719 -18 -875 -32 -350 -60 -577 -99
-800 -11 -66 -21 -178 -23 -250 -2 -101 -10 -163 -35 -275 -94 -432 -105 -519
-80 -612 33 -118 213 -190 327 -130 23 12 70 48 104 79 l62 58 -6 -63 -7 -62
514 0 c283 0 560 5 617 10 362 37 615 200 668 431 32 138 -15 312 -131 482
-48 71 -155 197 -173 203 -7 3 -68 -31 -135 -76 -146 -98 -267 -157 -342 -166
-73 -8 -136 18 -172 73 -52 79 -54 73 129 338 212 306 320 482 411 670 132
273 182 465 191 736 9 245 -7 242 -147 -30 -50 -97 -97 -185 -105 -195 -15
-19 -16 -19 -45 9 -44 43 -112 46 -180 9 -63 -34 -170 -146 -275 -288 -48 -64
-86 -106 -97 -106 -42 0 -36 166 17 530 20 135 39 299 42 365 5 106 4 122 -11
135 -44 36 -68 -19 -137 -315 -27 -115 -62 -252 -79 -303 -30 -96 -76 -186
-90 -177 -10 6 -19 55 -31 164 -6 57 -5 189 3 387 9 225 9 329 0 415 -11 118
-39 249 -52 249 -8 0 -52 -267 -75 -460 -26 -222 -36 -447 -29 -665 9 -301 -9
-552 -107 -1440 l-50 -460 -40 -83 c-23 -48 -45 -82 -52 -79 -19 6 -13 255 12
482 19 175 55 702 105 1520 34 548 40 735 41 1240 l0 530 -24 65 c-34 88 -36
224 -6 267 40 55 113 80 314 108 l184 26 56 42 c31 23 109 84 174 135 67 54
123 92 131 89 8 -3 51 -48 96 -99 288 -327 674 -1099 795 -1587 92 -373 127
-619 150 -1061 19 -346 40 -481 108 -665 35 -97 46 -121 202 -450 254 -536
403 -868 441 -987 18 -55 34 -75 34 -43 0 49 -146 382 -450 1025 -183 387
-207 443 -243 570 -42 144 -57 264 -72 560 -32 623 -117 1046 -302 1505 -122
303 -316 678 -481 929 -65 99 -229 298 -259 315 -14 7 -10 14 23 42 21 19 128
115 237 214 194 175 263 237 397 352 120 103 228 240 325 413 108 192 190 400
328 830 82 254 89 271 171 409 78 132 89 146 137 174 137 78 469 476 469 562
0 21 8 19 64 -19 27 -19 54 -32 60 -30 15 7 66 75 66 89 0 6 -64 48 -142 93
-79 45 -149 86 -156 91 -11 6 -3 36 36 142 436 1164 427 2238 -25 3088 -367
688 -874 1136 -1488 1313 -130 37 -433 95 -571 108 -100 9 -326 13 -349 5z
m2422 -4814 c38 -28 62 -54 63 -65 1 -76 -323 -465 -448 -539 -29 -16 -22 0
88 215 65 128 139 281 165 340 29 66 52 105 59 101 6 -3 39 -27 73 -52z"/>
<path d="M4670 4131 c0 -48 4 -83 11 -87 14 -8 29 14 29 43 0 38 -21 123 -31
123 -5 0 -9 -36 -9 -79z"/>
<path d="M10 4149 c-7 -25 -9 -71 -4 -122 6 -74 13 -93 87 -241 187 -379 317
-691 434 -1044 92 -280 136 -448 179 -677 18 -99 60 -313 93 -475 76 -370 97
-493 117 -683 29 -270 9 -630 -45 -814 -7 -26 -6 -33 7 -39 10 -4 103 -10 208
-12 l192 -4 7 139 c16 280 -7 680 -55 983 -33 203 -54 288 -160 640 -351 1162
-609 1803 -907 2260 -50 76 -103 130 -128 130 -8 0 -19 -18 -25 -41z"/>
<path d="M4 3655 c-8 -20 4 -113 20 -150 l12 -29 22 45 c26 53 27 68 8 114
-16 37 -51 48 -62 20z"/>
<path d="M105 3450 c-9 -27 2 -73 32 -142 28 -64 47 -75 92 -56 l31 13 -35 79
c-37 85 -68 126 -96 126 -10 0 -21 -9 -24 -20z"/>
<path d="M2011 3256 c-14 -16 -4 -46 14 -46 19 0 27 17 20 40 -7 23 -18 25
-34 6z"/>
<path d="M235 3190 c-7 -12 2 -30 16 -30 5 0 9 9 9 20 0 21 -15 27 -25 10z"/>
<path d="M240 3105 c-10 -12 -9 -16 3 -21 20 -7 37 3 37 22 0 18 -24 18 -40
-1z"/>
<path d="M290 3050 c0 -16 5 -21 23 -18 12 2 22 10 22 18 0 8 -10 16 -22 18
-18 3 -23 -2 -23 -18z"/>
<path d="M25 2250 c-13 -41 -22 -327 -14 -459 19 -329 105 -666 249 -977 36
-78 97 -290 87 -301 -2 -2 -39 81 -82 184 -92 223 -156 351 -191 384 -24 23
-26 23 -39 6 -8 -11 -16 -67 -20 -151 -10 -189 4 -232 153 -470 85 -136 139
-244 148 -296 4 -24 -19 11 -73 110 -104 192 -166 287 -193 295 -46 15 -47 2
-36 -310 l6 -190 28 -15 c22 -12 78 -15 312 -15 213 0 295 -3 323 -13 82 -29
135 37 158 197 20 145 -2 371 -36 371 -10 0 -15 11 -15 33 0 17 -9 88 -20 157
-64 390 -164 681 -280 813 -47 55 -49 56 -70 39 -52 -42 -48 -127 24 -449 57
-256 68 -327 70 -437 1 -88 -19 -216 -34 -216 -14 0 -39 113 -115 510 -77 397
-86 441 -169 780 -86 351 -146 498 -171 420z"/>
<path d="M3732 2205 c-20 -73 -90 -394 -172 -795 -122 -594 -194 -924 -250
-1144 -28 -109 -49 -201 -46 -203 2 -2 70 -11 150 -19 163 -16 211 -10 251 31
36 35 48 95 40 209 -5 78 1 174 24 414 50 504 61 681 61 955 0 243 -17 483
-39 562 l-8 30 -11 -40z"/>
<path d="M606 1854 c-11 -30 -6 -175 10 -252 8 -42 42 -178 75 -302 76 -291
88 -344 98 -467 9 -108 18 -136 32 -111 11 20 -4 217 -36 488 -48 401 -78 567
-115 628 -21 34 -54 43 -64 16z"/>
<path d="M6003 1728 c-41 -44 -67 -98 -98 -204 -19 -66 -65 -285 -65 -311 0
-9 46 0 97 18 76 29 143 93 179 172 24 53 28 75 29 152 0 106 -6 133 -41 174
-33 40 -62 39 -101 -1z"/>
<path d="M3180 1216 c-14 -37 -13 -69 2 -64 17 6 32 68 19 81 -7 7 -14 2 -21
-17z"/>
<path d="M3121 1066 c-7 -8 -11 -34 -9 -58 3 -39 5 -43 28 -40 49 5 60 52 22
95 -18 21 -26 21 -41 3z"/>
<path d="M3046 698 c-42 -67 -72 -268 -63 -432 7 -133 28 -203 63 -212 34 -9
51 10 63 69 12 62 27 311 23 382 -7 119 -35 215 -62 215 -5 0 -16 -10 -24 -22z"/>
</g>
</svg>
