<?xml version="1.0" standalone="no"?>
<!DOCTYPE svg PUBLIC "-//W3C//DTD SVG 20010904//EN"
 "http://www.w3.org/TR/2001/REC-SVG-20010904/DTD/svg10.dtd">
<svg version="1.0" xmlns="http://www.w3.org/2000/svg"
 width="1027.000000pt" height="1280.000000pt" viewBox="0 0 1027.000000 1280.000000"
 preserveAspectRatio="xMidYMid meet">
<metadata>
Created by potrace 1.15, written by Peter Selinger 2001-2017
</metadata>
<g transform="translate(0.000000,1280.000000) scale(0.100000,-0.100000)"
fill="#000000" stroke="none">
<path d="M5587 12793 c-4 -6 -35 -19 -69 -29 -56 -17 -92 -19 -318 -17 -270 3
-525 -14 -635 -42 -33 -9 -94 -15 -137 -15 -62 1 -96 -6 -180 -34 -56 -19
-125 -37 -153 -41 -27 -3 -183 -35 -345 -71 -207 -45 -313 -73 -355 -94 -109
-52 -155 -70 -384 -141 -124 -39 -263 -88 -307 -110 -95 -45 -223 -137 -279
-201 -35 -39 -46 -46 -92 -51 -158 -18 -321 -125 -658 -429 -258 -233 -404
-382 -502 -513 -87 -116 -220 -332 -255 -412 -14 -33 -39 -63 -78 -95 -127
-103 -267 -337 -335 -558 -20 -63 -76 -223 -124 -355 -49 -132 -99 -274 -111
-315 -12 -41 -32 -107 -45 -146 -36 -105 -53 -223 -70 -474 -18 -285 -23 -316
-52 -358 -37 -55 -45 -105 -53 -312 -6 -169 -10 -203 -30 -254 l-23 -60 17
-220 c14 -175 15 -239 7 -307 l-11 -86 39 -84 c47 -101 69 -174 116 -384 20
-88 53 -212 74 -275 22 -63 47 -142 56 -175 9 -33 41 -129 71 -213 30 -85 65
-195 78 -245 19 -76 45 -132 146 -317 147 -268 194 -343 252 -402 24 -25 65
-88 93 -143 55 -109 101 -164 158 -194 27 -13 54 -42 87 -93 80 -121 266 -294
424 -396 39 -25 118 -80 176 -122 174 -128 216 -149 420 -209 36 -10 153 -51
260 -91 225 -83 399 -135 485 -145 33 -3 83 -13 110 -20 307 -85 741 -65 947
43 4 2 -1 -20 -11 -50 -98 -284 -300 -588 -723 -1085 -43 -51 -78 -94 -78 -96
0 -2 56 -4 124 -5 438 -5 854 -174 1125 -457 155 -163 244 -303 469 -740 236
-459 320 -592 471 -748 142 -147 294 -244 487 -310 258 -90 585 -118 865 -76
l77 11 6 52 c3 28 15 179 26 336 33 464 46 557 131 894 76 306 134 476 219
652 105 219 243 412 387 544 50 46 60 51 87 45 96 -20 344 -58 491 -77 233
-29 655 -32 825 -5 215 34 432 97 504 146 89 62 148 146 177 251 17 63 14 223
-6 290 -47 161 -35 193 136 361 127 125 129 127 129 171 0 50 -34 106 -90 149
-97 74 -101 92 -32 158 27 25 86 81 131 124 45 43 87 90 92 104 23 60 -14 123
-146 253 -137 134 -174 236 -110 299 31 30 224 133 307 164 25 10 67 36 93 59
115 102 135 255 53 427 -26 55 -56 91 -178 211 -152 151 -202 214 -289 365
-51 90 -135 290 -166 397 l-16 57 70 168 c105 253 121 333 96 477 -66 386
-225 806 -459 1214 -67 117 -86 158 -80 175 12 38 68 119 142 205 118 136 162
214 162 285 0 41 27 120 118 347 128 321 149 422 138 660 -8 185 -58 411 -126
574 -29 69 -51 109 -249 471 -206 374 -417 632 -706 865 -118 96 -339 240
-446 292 -226 110 -519 216 -767 277 -93 24 -210 62 -288 94 -72 30 -158 63
-190 72 -73 22 -181 25 -256 6 -52 -13 -60 -12 -76 2 -38 35 -130 67 -232 81
-58 9 -118 19 -135 24 -16 5 -50 5 -75 0 -82 -16 -211 -9 -349 17 -164 31
-266 41 -274 28z m663 -7978 c0 -41 -4 -75 -9 -75 -20 0 -73 -55 -104 -108
-148 -256 -248 -790 -217 -1166 16 -206 52 -331 112 -393 38 -40 77 -49 116
-29 232 120 393 964 286 1496 -17 82 -52 188 -65 196 -11 7 -12 144 -1 144 4
0 28 -13 53 -29 170 -108 273 -443 256 -837 -21 -476 -168 -902 -381 -1102
-71 -66 -130 -92 -208 -92 -175 0 -314 221 -364 577 -20 146 -15 486 11 633
73 429 243 747 450 841 63 29 65 28 65 -56z"/>
</g>
</svg>
