<?xml version="1.0" standalone="no"?>
<!DOCTYPE svg PUBLIC "-//W3C//DTD SVG 20010904//EN"
 "http://www.w3.org/TR/2001/REC-SVG-20010904/DTD/svg10.dtd">
<svg version="1.0" xmlns="http://www.w3.org/2000/svg"
 width="1122.000000pt" height="1280.000000pt" viewBox="0 0 1122.000000 1280.000000"
 preserveAspectRatio="xMidYMid meet">
<metadata>
Created by potrace 1.15, written by Peter Selinger 2001-2017
</metadata>
<g transform="translate(0.000000,1280.000000) scale(0.100000,-0.100000)"
fill="#000000" stroke="none">
<path d="M5785 12790 c-11 -4 -72 -62 -134 -129 -62 -66 -117 -121 -122 -121
-5 0 -56 45 -114 100 -57 55 -107 100 -111 100 -4 0 -53 -21 -108 -47 -128
-61 -181 -63 -336 -16 -251 77 -318 95 -371 100 -54 5 -59 4 -110 -34 -199
-146 -515 -323 -612 -342 -29 -6 -137 -15 -242 -21 -104 -5 -209 -15 -232 -22
-64 -20 -185 -140 -207 -205 -12 -35 -57 -101 -157 -226 -132 -166 -143 -177
-174 -177 -18 0 -93 -7 -166 -15 -73 -9 -138 -14 -145 -11 -7 3 -15 19 -19 36
-6 29 -9 31 -38 25 -114 -23 -109 -19 -245 -206 l-92 -125 -138 -51 c-75 -28
-168 -62 -206 -75 l-68 -23 -104 -174 c-104 -174 -140 -258 -174 -414 -14 -61
-6 -54 -175 -145 -170 -90 -165 -84 -190 -230 -40 -232 -42 -235 -157 -380
-74 -93 -129 -176 -187 -283 -84 -154 -95 -185 -125 -364 -34 -202 -40 -298
-27 -456 l13 -151 -29 -31 c-15 -17 -98 -102 -183 -189 -150 -154 -155 -161
-167 -216 -17 -83 -33 -218 -33 -287 0 -33 -5 -78 -11 -100 -10 -41 -39 -208
-59 -345 -6 -41 -17 -92 -23 -113 -10 -37 -8 -44 59 -175 l69 -136 2 -286 c3
-453 7 -532 13 -270 l6 235 2 -261 2 -262 46 -63 c26 -35 55 -81 65 -103 16
-38 53 -194 84 -356 7 -36 18 -93 25 -127 l14 -62 -38 -93 c-47 -114 -49 -153
-11 -238 50 -113 48 -111 149 -113 l88 -2 103 -110 c78 -83 130 -152 211 -280
219 -344 190 -309 515 -626 166 -162 339 -336 385 -387 81 -91 83 -94 124
-218 54 -165 74 -208 101 -228 37 -26 135 -54 282 -80 76 -14 142 -28 147 -31
11 -7 121 -174 179 -271 l42 -71 197 -42 c277 -59 265 -55 393 -141 150 -101
206 -129 282 -139 34 -5 106 -16 160 -26 l99 -18 111 77 c62 43 140 97 175
122 l63 44 128 0 c126 0 128 0 174 -31 26 -17 49 -34 52 -38 2 -5 -19 -48 -47
-97 -29 -49 -71 -122 -94 -161 -23 -40 -72 -155 -109 -255 -169 -457 -200
-527 -306 -694 -119 -187 -132 -206 -310 -434 -147 -188 -178 -241 -405 -687
-68 -134 -124 -255 -124 -269 l0 -26 2078 7 c1287 4 2084 11 2095 17 10 5 38
40 62 77 24 37 64 83 90 102 35 27 54 53 86 119 48 98 69 154 69 182 0 10 -35
54 -77 97 -62 63 -105 123 -212 296 l-134 217 6 82 c19 251 13 227 99 406 85
178 290 570 345 662 25 42 61 78 144 143 l110 87 107 1 c67 1 122 -4 147 -12
22 -8 147 -86 277 -173 254 -171 276 -182 567 -283 91 -31 186 -65 213 -76 78
-31 108 -26 215 35 53 30 132 70 176 88 84 35 85 35 345 276 l110 102 74 0 73
1 43 59 c23 33 42 72 42 86 0 14 -9 62 -21 106 -15 62 -17 83 -8 89 6 4 42 10
78 14 148 16 162 41 167 298 2 93 -1 207 -5 255 -6 59 -5 95 3 112 16 36 85
59 178 59 62 1 97 8 180 37 57 21 108 42 114 48 16 15 64 185 71 248 6 61 -14
159 -86 418 -75 273 -82 323 -56 420 8 30 15 76 15 101 0 32 9 64 29 102 16
31 27 57 25 60 -2 2 1 28 6 58 11 57 40 121 70 154 10 11 21 39 25 61 3 23 20
70 37 105 16 35 46 107 65 159 74 200 68 136 68 770 l0 575 -38 95 c-61 152
-176 493 -208 618 -16 63 -37 131 -46 151 -10 20 -63 83 -119 141 -56 58 -109
121 -119 140 -10 19 -19 37 -21 38 -1 2 -229 -164 -506 -369 -603 -447 -1262
-935 -1754 -1299 -198 -147 -430 -319 -515 -382 -85 -63 -275 -204 -424 -314
-148 -110 -403 -299 -565 -419 -162 -120 -306 -224 -320 -231 -14 -7 -137 -26
-275 -43 -137 -18 -265 -34 -283 -37 -31 -6 -30 -4 36 62 113 113 191 298 253
597 37 177 56 237 104 323 144 257 531 655 1060 1091 529 435 1454 1093 2250
1602 116 74 216 140 223 146 11 9 10 26 -3 89 -9 42 -13 81 -9 87 10 16 129
91 221 138 45 24 85 50 87 59 3 10 12 60 20 112 8 52 25 149 37 215 36 193 35
203 -55 400 -94 206 -111 236 -181 319 -30 36 -55 73 -55 84 0 10 23 49 50 85
64 85 64 107 2 292 -45 132 -59 160 -255 486 -114 190 -217 355 -230 367 -54
51 -262 182 -289 182 -15 0 -70 -16 -123 -36 -52 -19 -109 -37 -127 -40 -33
-5 -33 -5 -88 102 -79 156 -103 187 -188 251 -42 31 -135 100 -207 154 -71 53
-143 103 -160 112 -16 8 -88 31 -160 52 -160 46 -176 54 -349 176 -94 67 -149
99 -167 99 -43 0 -369 -58 -450 -80 -41 -12 -99 -26 -130 -32 l-56 -11 -144
75 c-79 42 -196 94 -259 116 -63 22 -200 70 -305 107 -104 37 -210 71 -235 76
-58 10 -329 10 -355 -1z m439 -9089 c29 -10 70 -30 91 -44 l37 -25 47 29 c95
61 193 73 303 39 126 -39 201 -113 214 -212 21 -155 -129 -409 -413 -697
l-142 -144 -82 74 c-102 92 -254 262 -335 376 -193 271 -205 460 -36 565 90
56 222 72 316 39z"/>
<path d="M6500 3589 c-24 -11 -68 -38 -97 -60 l-53 -40 -50 40 c-27 21 -70 47
-95 56 -90 35 -219 1 -260 -67 -43 -74 20 -233 173 -432 51 -67 230 -256 242
-256 13 0 211 226 273 312 105 146 156 279 136 353 -12 44 -57 81 -121 100
-68 20 -94 19 -148 -6z"/>
</g>
</svg>
