<?xml version="1.0" standalone="no"?>
<!DOCTYPE svg PUBLIC "-//W3C//DTD SVG 20010904//EN"
 "http://www.w3.org/TR/2001/REC-SVG-20010904/DTD/svg10.dtd">
<svg version="1.0" xmlns="http://www.w3.org/2000/svg"
 width="1280.000000pt" height="1188.000000pt" viewBox="0 0 1280.000000 1188.000000"
 preserveAspectRatio="xMidYMid meet">
<metadata>
Created by potrace 1.15, written by Peter Selinger 2001-2017
</metadata>
<g transform="translate(0.000000,1188.000000) scale(0.100000,-0.100000)"
fill="#000000" stroke="none">
<path d="M6900 11858 c-62 -21 -81 -22 -470 -23 l-405 0 -75 -28 c-96 -36
-197 -43 -402 -28 -177 13 -247 6 -344 -33 -81 -33 -155 -45 -340 -55 -119 -7
-175 -14 -223 -30 -71 -25 -251 -113 -543 -268 l-198 -104 -192 17 c-449 39
-837 -30 -1132 -200 -100 -57 -179 -137 -320 -320 -150 -195 -198 -242 -307
-296 -178 -90 -302 -254 -515 -680 -348 -699 -524 -1223 -605 -1810 -20 -145
-23 -206 -23 -495 0 -305 2 -352 32 -615 17 -157 52 -492 77 -745 103 -1050
165 -1390 326 -1795 33 -85 71 -184 84 -220 12 -36 75 -176 138 -313 143 -305
188 -419 226 -568 51 -200 125 -318 272 -428 108 -82 238 -144 504 -240 121
-44 252 -92 290 -107 60 -24 84 -27 175 -28 175 0 311 38 555 157 l160 78 -3
107 c-4 135 -21 219 -67 330 -20 48 -46 119 -57 157 -11 39 -74 205 -140 370
-203 507 -307 845 -348 1125 -41 288 -36 464 20 630 15 47 67 171 114 276 93
210 118 289 141 460 29 207 58 281 136 348 54 46 99 52 236 32 192 -28 333
-77 333 -115 0 -10 -17 -33 -37 -51 -45 -40 -168 -100 -205 -100 -66 0 -234
-84 -292 -147 -35 -38 -31 -68 9 -67 45 2 318 77 410 114 246 97 487 275 552
407 23 49 28 70 28 138 0 69 -5 89 -33 150 -45 94 -77 134 -127 156 -24 11
-120 32 -215 48 -256 43 -263 58 -106 219 57 59 111 121 120 139 34 68 11 134
-67 194 -101 77 -144 131 -161 201 -8 34 7 75 31 82 69 21 436 69 889 116 314
32 413 36 447 19 12 -7 76 -64 142 -129 140 -136 171 -154 370 -209 77 -21
152 -43 166 -49 34 -13 69 -58 69 -87 0 -54 -101 -155 -210 -210 -25 -12 -90
-37 -145 -55 -55 -17 -115 -43 -133 -56 -57 -44 -92 -143 -92 -265 0 -134 72
-197 297 -259 314 -87 759 -129 811 -76 16 16 16 18 -6 36 -12 10 -86 40 -165
66 -184 61 -215 77 -233 119 -18 44 -18 128 1 164 39 77 189 62 401 -39 124
-60 180 -129 239 -292 28 -79 36 -93 56 -96 13 -2 159 11 325 28 165 16 332
30 370 30 97 0 156 -31 259 -134 157 -158 221 -354 246 -749 17 -278 -3 -529
-70 -882 -50 -267 -65 -424 -65 -685 0 -261 11 -342 64 -488 16 -45 30 -93 30
-105 0 -12 -33 -72 -73 -132 -41 -61 -122 -189 -182 -285 -139 -227 -217 -331
-321 -429 -106 -100 -165 -130 -364 -180 -412 -103 -535 -122 -950 -141 -527
-24 -739 -42 -1010 -85 -273 -43 -418 -56 -700 -62 -238 -5 -287 -3 -363 12
-154 30 -197 19 -512 -136 -367 -180 -445 -245 -578 -474 -62 -107 -122 -253
-191 -465 -123 -378 -243 -542 -444 -612 -96 -33 -253 -31 -417 6 -346 78
-359 79 -555 80 -204 1 -297 -14 -484 -76 -178 -59 -487 -222 -676 -356 -82
-58 -160 -131 -160 -148 0 -17 42 -38 105 -53 119 -26 286 -32 943 -30 505 2
724 -1 862 -12 147 -11 455 -14 1495 -13 1294 1 1771 9 2370 39 362 19 1014
35 1415 35 350 0 935 16 1125 30 407 31 571 41 965 60 452 21 607 32 724 51
64 10 73 15 116 60 25 26 62 75 81 109 154 272 246 368 549 577 146 100 210
158 210 189 0 13 -15 35 -37 54 -34 30 -40 32 -91 27 -76 -8 -201 -70 -440
-220 -476 -298 -701 -395 -931 -400 -100 -2 -120 6 -198 81 -112 108 -173 313
-173 587 0 75 4 109 18 135 34 68 155 106 488 155 278 41 385 76 490 161 187
151 541 488 964 919 291 296 402 430 483 578 111 202 154 253 407 485 402 367
656 717 770 1059 65 197 90 372 90 633 0 319 -32 596 -139 1220 -22 129 -49
314 -61 410 -68 578 -124 791 -419 1615 -135 376 -160 431 -247 555 -32 47
-108 162 -168 255 -286 445 -375 533 -1171 1155 -295 230 -403 306 -525 366
-150 74 -211 90 -452 113 -108 11 -130 20 -243 101 -90 64 -144 94 -260 141
-44 18 -221 103 -393 190 -184 93 -336 163 -368 170 -41 9 -117 10 -319 3
-370 -14 -392 -11 -692 87 -288 93 -340 101 -443 67z"/>
<path d="M5125 5643 c-11 -2 -78 -22 -150 -43 -162 -49 -251 -68 -357 -75
-183 -13 -187 -14 -234 -57 -49 -45 -104 -126 -104 -153 0 -29 80 -99 130
-114 123 -37 366 -31 508 14 114 35 509 105 600 105 40 0 52 25 52 109 0 77
-19 101 -123 151 -125 60 -236 82 -322 63z"/>
<path d="M5015 4644 c-356 -66 -813 -305 -996 -521 -58 -68 -69 -105 -69 -239
0 -140 10 -158 81 -152 64 7 98 34 214 173 147 177 286 285 487 379 145 68
246 91 408 90 169 -1 270 -26 462 -113 171 -77 274 -104 398 -104 160 -1 230
32 230 106 0 101 -156 179 -603 301 -297 81 -479 105 -612 80z"/>
<path d="M5220 3895 c-393 -41 -634 -138 -788 -319 -79 -93 -172 -316 -172
-413 0 -44 21 -60 87 -69 32 -4 264 -4 515 0 l458 6 182 84 c357 162 436 187
693 211 180 17 229 26 260 49 20 15 20 15 0 53 -26 50 -288 312 -345 346 -90
52 -140 59 -460 62 -203 3 -337 -1 -430 -10z"/>
<path d="M5255 2970 c-96 -24 -234 -101 -307 -170 -95 -90 -74 -130 68 -130
177 0 352 58 380 127 25 59 -4 155 -52 173 -29 11 -46 11 -89 0z"/>
</g>
</svg>
