<?xml version="1.0" standalone="no"?>
<!DOCTYPE svg PUBLIC "-//W3C//DTD SVG 20010904//EN"
 "http://www.w3.org/TR/2001/REC-SVG-20010904/DTD/svg10.dtd">
<svg version="1.0" xmlns="http://www.w3.org/2000/svg"
 width="1280.000000pt" height="905.000000pt" viewBox="0 0 1280.000000 905.000000"
 preserveAspectRatio="xMidYMid meet">
<metadata>
Created by potrace 1.15, written by Peter Selinger 2001-2017
</metadata>
<g transform="translate(0.000000,905.000000) scale(0.100000,-0.100000)"
fill="#000000" stroke="none">
<path d="M6275 8484 c-22 -2 -119 -11 -215 -19 -203 -18 -337 -46 -362 -77
-15 -17 -18 -41 -18 -152 0 -196 20 -238 137 -292 41 -18 85 -34 96 -34 24 0
143 -65 154 -84 10 -16 66 -35 122 -41 23 -2 67 -9 99 -14 31 -5 96 -13 145
-17 48 -3 87 -10 87 -15 0 -5 -14 -9 -31 -9 -17 0 -45 -6 -62 -14 -18 -7 -45
-19 -62 -25 -76 -29 -157 -142 -132 -183 13 -20 1 -65 -23 -86 -24 -20 -26
-49 -4 -73 14 -16 14 -20 0 -48 -21 -40 -20 -53 5 -85 17 -22 28 -26 72 -26
59 0 56 -8 -20 -49 -68 -37 -93 -79 -93 -156 0 -94 23 -149 73 -178 23 -13 54
-27 70 -31 62 -15 136 62 138 144 0 25 4 53 8 63 6 17 8 17 20 3 20 -24 34
-84 38 -172 6 -116 -6 -153 -71 -211 -46 -40 -60 -47 -99 -48 -90 -1 -149 -68
-192 -217 -9 -31 -22 -62 -30 -68 -7 -6 -18 -30 -23 -53 -11 -42 -96 -192
-131 -232 -48 -54 -151 -217 -175 -277 -38 -97 -37 -184 4 -244 19 -26 39 -44
50 -44 11 0 50 -15 87 -33 63 -31 95 -49 278 -161 101 -61 172 -99 238 -125
88 -36 257 -199 243 -236 -2 -7 -26 -22 -53 -34 -83 -38 -97 -48 -120 -81 -22
-31 -23 -43 -23 -197 0 -124 -4 -176 -16 -214 -17 -50 -12 -99 7 -69 71 114
113 204 140 300 8 28 26 58 50 80 42 40 162 105 167 91 2 -5 -7 -29 -19 -53
-37 -73 -41 -103 -50 -418 -9 -355 -14 -404 -63 -605 -54 -224 -67 -268 -83
-287 -25 -28 -46 -145 -44 -243 2 -83 0 -95 -29 -150 -36 -70 -44 -82 -175
-244 -176 -219 -196 -245 -230 -301 -18 -30 -70 -116 -115 -190 -46 -74 -131
-218 -190 -321 -59 -102 -132 -223 -162 -270 -30 -46 -76 -118 -101 -159 -50
-79 -86 -130 -169 -242 -44 -60 -54 -68 -83 -68 -54 0 -83 -16 -105 -59 -28
-56 -25 -86 15 -141 19 -26 35 -50 35 -53 0 -12 -57 -60 -120 -102 -36 -24
-133 -102 -216 -173 -108 -93 -163 -134 -193 -143 -55 -16 -62 -35 -25 -65 21
-18 37 -23 59 -19 44 8 108 41 178 93 110 81 192 119 315 145 62 14 115 27
118 30 3 3 0 40 -5 83 -12 87 -8 112 36 209 104 227 203 388 348 565 22 27 72
88 110 135 39 48 113 138 165 199 52 62 119 142 148 177 29 36 118 128 198
204 184 176 211 220 258 432 18 81 67 190 114 254 35 47 80 81 96 71 6 -3 66
-5 133 -4 106 2 203 -10 203 -25 0 -2 -22 -52 -49 -111 -128 -280 -130 -290
-136 -632 -3 -140 -9 -304 -15 -365 -5 -60 -14 -177 -20 -260 -12 -166 -36
-408 -50 -500 -5 -33 -12 -82 -15 -110 -8 -67 -25 -145 -33 -146 -53 -6 -107
-48 -115 -88 -9 -41 -1 -57 34 -71 36 -15 38 -42 4 -90 -13 -19 -27 -49 -31
-66 l-6 -31 94 4 c416 18 465 19 503 9 65 -18 88 -14 105 17 14 26 14 29 -4
43 -11 8 -31 14 -44 14 -35 0 -189 40 -236 61 -22 10 -61 19 -86 19 -25 1 -63
4 -84 8 l-40 7 27 12 c23 11 25 16 18 35 -20 50 -44 90 -61 100 -17 11 -17 13
0 52 30 72 113 375 124 454 4 25 33 157 56 257 6 22 12 56 15 75 6 33 60 244
92 355 8 28 19 66 23 85 5 19 16 60 25 90 9 30 30 105 46 165 52 192 80 278
125 376 36 79 44 107 44 155 0 45 7 72 29 114 83 160 121 224 218 367 119 175
299 510 366 683 24 61 72 239 96 358 21 103 9 261 -27 366 -20 57 -100 136
-138 136 -13 0 -37 13 -54 30 -17 16 -35 30 -39 30 -5 0 -29 35 -54 78 -25 42
-65 104 -90 137 -55 73 -198 213 -287 280 -36 27 -67 52 -70 56 -3 3 -54 40
-115 81 -95 65 -242 145 -297 162 -16 5 -14 11 14 57 18 28 44 57 58 63 46 20
92 78 111 141 45 144 11 231 -121 316 -44 29 -80 58 -80 65 0 30 68 80 156
113 102 39 189 74 254 103 73 33 209 125 272 186 66 63 66 66 26 172 -24 60
-43 88 -133 188 -79 88 -125 131 -215 205 -41 34 -77 64 -80 68 -10 14 -145
99 -157 99 -19 0 -16 17 8 50 21 28 21 30 4 56 -9 14 -26 29 -37 32 -15 4 -18
10 -13 30 11 44 -47 59 -81 21 -17 -19 -19 -19 -31 -3 -7 10 -13 25 -13 33 1
22 42 67 80 88 53 30 74 130 51 236 -5 23 -15 68 -21 100 -6 32 -18 70 -25 85
-7 15 -17 40 -22 57 -20 68 -230 113 -558 120 -99 1 -198 1 -220 -1z m530
-784 c21 -22 26 -33 18 -38 -20 -12 -3 -49 27 -62 15 -6 33 -22 40 -35 15 -29
79 -75 103 -75 20 0 62 -54 197 -254 117 -171 186 -249 262 -294 42 -24 38
-30 -32 -47 -7 -2 -45 -18 -114 -49 -42 -18 -91 -30 -160 -37 -203 -21 -273
-51 -330 -143 l-19 -29 -21 28 c-11 16 -26 42 -33 57 -12 27 -11 28 20 28 42
0 71 21 103 75 21 37 25 56 25 117 -1 133 6 162 50 198 31 24 39 38 39 63 0
37 -5 45 -61 109 -27 31 -48 47 -58 43 -12 -3 -20 10 -35 58 -11 34 -30 84
-44 111 -29 60 -97 152 -118 160 -23 9 -16 21 19 33 61 20 91 15 122 -17z
m-440 -626 c32 -68 23 -170 -18 -197 -21 -13 -25 -13 -51 8 -24 19 -30 33 -34
78 -6 73 25 147 61 147 19 0 29 -9 42 -36z m315 -111 c14 -10 45 -20 70 -23
39 -4 45 -8 48 -31 4 -36 -30 -64 -76 -61 -45 3 -65 21 -81 70 -7 20 -15 43
-17 50 -8 18 27 15 56 -5z m-274 -921 c5 -4 26 -29 44 -57 114 -165 299 -336
470 -435 299 -172 467 -287 558 -379 107 -110 111 -118 75 -169 -18 -27 -33
-39 -43 -36 -8 4 -70 10 -138 15 -98 7 -138 6 -195 -6 -85 -18 -186 -65 -237
-111 -37 -34 -50 -35 -50 -3 0 9 -16 30 -36 46 -65 51 -208 197 -269 273 -197
247 -329 368 -448 411 -20 7 -37 15 -37 19 0 3 11 25 24 50 13 25 35 68 49 97
51 101 110 189 160 241 54 55 56 56 73 44z"/>
<path d="M1694 8434 c30 -136 34 -175 29 -265 -7 -123 4 -159 63 -200 46 -32
54 -49 29 -69 -8 -7 -13 -16 -10 -20 3 -4 -4 -18 -14 -31 -60 -77 -105 -325
-71 -389 8 -14 6 -34 -6 -71 -28 -84 -15 -174 44 -300 31 -66 61 -115 81 -131
24 -21 31 -35 31 -62 0 -75 -34 -117 -135 -165 -78 -38 -120 -80 -141 -144
-15 -45 -15 -61 -5 -131 29 -188 129 -340 426 -648 l136 -141 55 -5 c47 -4 57
-8 69 -32 19 -36 35 -139 35 -221 0 -63 -2 -67 -41 -110 -166 -180 -363 -513
-477 -804 -49 -125 -149 -425 -191 -570 -24 -84 -74 -330 -96 -475 -31 -205
-35 -236 -50 -355 -8 -66 -19 -147 -24 -180 -6 -33 -15 -98 -21 -145 -6 -47
-16 -119 -21 -161 -6 -43 -12 -263 -14 -490 -2 -228 -5 -485 -7 -571 -3 -146
-2 -158 14 -158 17 0 18 -17 20 -222 3 -290 4 -273 -26 -318 -14 -22 -26 -52
-26 -68 0 -15 -5 -33 -11 -39 -6 -6 -13 -38 -16 -72 -5 -57 -8 -63 -37 -78
-17 -8 -87 -53 -156 -98 -180 -119 -204 -131 -294 -144 -44 -6 -80 -12 -80
-14 -1 -1 -9 -17 -19 -36 -16 -31 -17 -36 -2 -50 28 -28 95 -21 305 33 52 13
138 29 190 35 52 6 123 20 157 31 35 11 96 24 135 29 107 13 127 23 120 58 -3
15 -13 42 -22 58 -27 49 -32 82 -15 115 21 40 19 77 -5 107 -11 14 -20 41 -20
60 0 18 -6 49 -14 68 -8 19 -12 52 -10 77 28 267 47 358 99 457 l14 28 302 8
c194 4 375 3 508 -4 351 -20 942 -60 951 -66 10 -6 32 -65 55 -150 10 -33 23
-79 30 -101 13 -41 12 -42 -17 -64 -28 -20 -29 -25 -23 -66 4 -26 2 -44 -3
-44 -21 0 -21 -34 -1 -66 16 -27 27 -34 51 -34 30 0 31 -1 26 -42 -3 -24 -21
-79 -42 -122 -25 -56 -36 -93 -36 -126 0 -44 2 -48 27 -53 14 -3 49 2 75 10
38 11 90 13 231 10 197 -5 219 -8 349 -39 134 -32 238 -12 197 38 -13 16 -66
42 -219 109 -47 20 -128 57 -180 82 -52 26 -126 56 -165 69 -60 19 -70 26 -77
50 -7 25 -3 33 32 65 45 42 48 52 20 94 -11 17 -20 40 -20 52 0 12 -14 34 -34
50 -39 32 -45 66 -32 173 8 65 20 99 39 111 5 4 5 15 -3 28 -14 27 -32 184
-30 263 0 32 -6 77 -14 100 -8 24 -17 98 -21 163 -7 117 -21 218 -49 360 -9
40 -11 74 -6 79 5 5 3 18 -4 30 -7 11 -19 80 -25 151 -7 72 -19 162 -27 202
-14 73 -31 187 -39 258 -2 22 -16 117 -30 210 -14 94 -25 204 -25 245 1 41 -6
113 -15 160 -9 47 -27 146 -40 220 -21 114 -35 186 -70 354 -31 147 -49 231
-60 281 -8 39 -10 66 -3 78 7 13 3 25 -16 47 -13 17 -34 62 -46 102 -12 40
-35 105 -52 143 -16 39 -60 147 -97 240 -38 94 -81 195 -96 225 -39 78 -103
170 -118 170 -20 0 -42 47 -75 155 -33 108 -47 194 -35 211 16 20 84 56 98 50
8 -3 15 -17 15 -31 0 -32 66 -208 97 -257 13 -21 23 -40 23 -43 0 -10 76 -109
112 -146 78 -79 206 -147 328 -175 171 -40 272 -40 430 -3 103 25 156 45 278
107 139 70 230 144 268 217 24 48 36 61 60 66 45 9 66 35 137 167 56 103 65
126 69 187 4 38 2 80 -4 94 -13 33 -15 48 -23 151 -4 47 -14 101 -23 120 -20
41 -42 50 -195 80 -107 21 -184 44 -432 130 -82 28 -172 55 -200 60 -27 5 -81
16 -120 25 -38 9 -126 20 -195 24 -118 8 -132 11 -255 60 -373 149 -586 198
-800 187 -66 -3 -128 -7 -139 -8 -28 -4 -59 44 -60 94 -1 39 1 43 24 44 68 4
179 214 209 395 29 172 3 286 -97 436 l-55 83 41 44 c51 55 68 87 80 156 6 30
18 75 26 99 9 24 16 51 16 60 0 9 16 48 34 86 19 39 33 72 31 74 -9 8 -27 -15
-50 -64 -31 -64 -79 -110 -171 -160 -82 -45 -106 -66 -146 -122 -18 -27 -37
-43 -49 -43 -11 0 -29 -5 -40 -10 -14 -8 -20 -8 -23 2 -34 120 -44 134 -140
195 -96 61 -114 79 -141 139 -27 61 -52 83 -41 38z m1247 -2010 c31 -8 69 -14
83 -14 31 0 149 -46 191 -74 27 -19 52 -21 360 -28 181 -4 380 -12 440 -17 61
-6 142 -13 180 -16 80 -7 218 -52 212 -69 -2 -6 -10 -28 -17 -48 l-14 -37
-125 5 c-69 3 -223 9 -342 14 -119 6 -256 10 -305 10 -84 0 -91 2 -120 29 -17
16 -55 42 -85 58 -49 26 -63 28 -159 28 -91 0 -110 -3 -143 -23 -36 -21 -286
-72 -353 -72 -28 0 -28 2 -18 172 l7 105 76 -5 c42 -2 101 -10 132 -18z m1563
-361 c9 -27 17 -59 18 -73 2 -34 -22 -102 -35 -97 -6 2 -18 31 -28 66 -17 58
-17 65 -1 106 9 25 19 45 23 45 4 0 14 -21 23 -47z"/>
<path d="M10340 7781 c-61 -9 -158 -42 -205 -71 -17 -10 -41 -16 -55 -14 -22
5 -40 -12 -143 -129 -65 -74 -133 -159 -152 -188 -19 -30 -47 -72 -63 -94 -16
-22 -41 -65 -55 -95 -13 -30 -36 -81 -51 -112 -22 -47 -72 -194 -115 -333 -23
-74 -121 -489 -136 -575 -9 -52 -27 -132 -41 -177 -14 -45 -27 -90 -29 -100
-7 -32 -66 -196 -102 -283 -19 -47 -38 -94 -42 -105 -4 -11 -22 -50 -39 -88
-18 -37 -32 -75 -32 -83 0 -48 -103 -173 -207 -253 -61 -46 -53 -56 15 -17
107 60 123 55 41 -14 -53 -45 -77 -86 -60 -103 7 -7 16 2 26 24 9 19 37 48 61
64 25 17 51 40 57 52 8 15 16 20 26 14 11 -7 4 -22 -33 -70 -31 -40 -46 -69
-44 -84 3 -19 7 -16 32 23 31 48 65 83 96 100 40 21 40 7 0 -57 -29 -46 -40
-103 -20 -103 6 0 10 7 10 16 0 29 64 123 92 135 41 17 51 4 29 -39 -10 -20
-21 -49 -25 -64 -12 -50 13 -30 46 37 26 52 37 65 55 65 19 0 21 -3 14 -17
-27 -49 -42 -94 -39 -115 3 -18 13 -4 43 60 28 60 45 84 61 88 35 9 44 -2 29
-34 -22 -47 -27 -96 -10 -117 14 -19 14 -18 15 13 0 69 39 122 88 122 17 0 18
-4 8 -50 -6 -32 -7 -59 0 -77 13 -38 32 -40 26 -3 -6 43 17 118 42 135 11 8
30 15 43 15 21 0 21 -1 7 -35 -21 -50 -18 -118 5 -139 19 -18 20 -17 14 37 -4
44 -1 65 17 104 18 41 56 83 64 71 1 -2 -2 -48 -6 -103 -5 -55 -8 -113 -8
-130 0 -16 -5 -58 -11 -92 -8 -46 -8 -70 1 -97 18 -55 25 -50 22 17 -3 76 20
130 58 135 l25 3 -3 -93 c-3 -88 -1 -95 23 -123 26 -29 26 -29 20 -5 -4 14 -9
67 -12 118 -6 108 1 122 58 122 36 0 51 -12 30 -24 -4 -3 -11 -28 -15 -56 -6
-42 -3 -57 14 -86 27 -43 34 -43 26 -1 -4 17 -1 65 5 105 l12 72 42 0 43 0 0
-80 c1 -44 4 -85 7 -90 17 -27 25 -2 25 75 0 78 2 85 20 85 25 0 40 -29 40
-77 0 -22 7 -48 15 -59 13 -17 14 -13 15 49 l0 67 35 0 c28 0 37 -5 50 -30 8
-16 15 -40 15 -55 0 -14 5 -25 11 -25 6 0 9 20 8 52 -3 52 -3 52 30 59 29 6
34 4 42 -20 6 -14 13 -38 16 -53 3 -16 9 -28 13 -28 16 0 19 31 5 69 -14 42
-6 61 27 61 12 0 21 -13 30 -45 18 -58 33 -48 54 38 17 70 28 82 37 46 10 -38
-29 -134 -89 -222 -18 -26 -42 -72 -53 -103 -20 -52 -20 -59 -6 -120 19 -82
19 -288 1 -366 -8 -32 -12 -58 -10 -58 3 0 -36 -80 -86 -177 -95 -188 -162
-280 -259 -358 -27 -22 -82 -67 -122 -100 -84 -70 -191 -152 -252 -194 -24
-16 -78 -59 -121 -95 -42 -36 -82 -66 -87 -66 -6 0 -8 -4 -5 -9 4 -5 -51 -49
-121 -98 -152 -106 -190 -137 -209 -174 -23 -46 -16 -45 27 5 45 51 137 102
154 85 7 -7 1 -17 -18 -32 -72 -56 -127 -111 -127 -128 0 -24 17 -25 24 -1 16
49 135 129 168 111 10 -5 18 -15 18 -22 0 -13 -44 -50 -102 -86 -54 -33 -88
-77 -88 -114 l1 -32 19 36 c28 54 75 96 142 130 47 24 63 28 74 18 21 -17 17
-25 -17 -40 -41 -16 -159 -138 -159 -163 0 -13 19 2 64 51 75 81 137 116 162
91 23 -22 8 -45 -75 -112 -65 -52 -89 -87 -79 -116 2 -6 21 10 43 37 34 42 98
99 143 127 9 5 20 3 30 -8 14 -14 14 -17 -4 -37 -10 -12 -38 -34 -61 -50 -64
-44 -115 -144 -84 -163 5 -4 12 8 16 26 13 62 150 177 178 149 8 -8 0 -23 -30
-54 -46 -47 -83 -111 -83 -142 1 -16 4 -14 17 10 23 43 61 87 94 108 34 22 37
15 10 -19 -10 -13 -38 -68 -61 -121 -125 -286 -394 -759 -474 -832 -28 -27
-32 -47 -15 -85 11 -23 6 -32 -60 -110 -39 -47 -93 -102 -118 -123 -26 -21
-68 -57 -93 -80 -26 -24 -52 -43 -57 -43 -19 0 -64 -42 -90 -84 -28 -44 -56
-80 -144 -185 -30 -36 -64 -79 -74 -95 l-19 -29 26 -22 c14 -12 31 -32 37 -44
16 -30 68 -28 139 6 41 19 93 61 182 148 69 67 145 132 168 144 53 27 128 95
148 132 8 16 14 43 14 62 0 22 11 48 33 76 41 56 190 169 231 177 35 6 93 -8
231 -57 50 -17 104 -35 120 -40 77 -21 140 -41 257 -83 105 -37 302 -90 416
-112 16 -3 22 -10 18 -22 -3 -9 -7 -28 -10 -42 -13 -73 -39 -146 -70 -203 -42
-75 -45 -105 -13 -135 20 -19 35 -22 102 -22 43 0 134 10 204 22 69 12 138 21
154 19 40 -4 282 -4 357 0 50 3 65 8 65 19 0 8 -10 16 -22 18 -13 2 -23 10
-23 18 0 10 -12 14 -37 14 -81 0 -264 35 -413 78 -47 14 -103 27 -125 31 -38
6 -40 8 -43 43 -3 39 24 104 53 128 9 8 35 47 57 87 22 40 43 75 48 78 17 11
41 -9 67 -54 15 -25 39 -62 53 -81 15 -19 35 -50 44 -68 19 -37 28 -35 50 10
11 22 14 46 10 77 -5 43 18 260 30 279 3 5 8 22 10 38 3 16 15 61 27 99 12 39
25 93 29 120 11 68 30 155 39 185 5 14 15 50 24 80 9 30 27 91 40 135 14 44
33 108 42 142 16 56 20 62 40 57 29 -7 39 8 65 96 38 132 50 163 104 270 56
110 156 400 156 451 0 17 4 60 10 97 50 354 68 497 80 632 5 69 15 183 21 253
7 70 9 167 5 215 -4 48 -11 157 -16 242 -25 404 -57 535 -155 633 -46 46 -47
48 -30 67 25 28 117 60 171 60 49 0 85 -15 155 -66 55 -40 69 -42 65 -10 -3
27 -207 259 -243 275 -39 18 -51 13 -83 -31 -35 -48 -105 -88 -155 -88 -30 0
-38 6 -78 68 -25 37 -48 79 -52 92 -6 25 12 38 125 90 9 4 19 31 25 68 6 37
18 70 31 84 12 13 26 32 32 43 18 35 11 116 -14 162 -16 31 -24 68 -29 140 -4
54 -12 104 -18 111 -13 16 8 140 34 201 10 24 19 56 19 72 0 16 5 29 10 29 16
0 11 36 -9 61 -32 42 -82 150 -79 172 2 14 13 23 33 27 17 4 41 12 53 19 20
11 23 18 17 47 -5 31 -3 35 20 34 3 -1 19 7 36 17 42 25 47 55 15 103 -33 50
-33 55 4 77 17 9 33 25 36 35 7 24 -20 72 -56 98 -22 16 -28 25 -21 34 26 31
-41 126 -87 126 -13 0 -41 14 -62 30 -49 38 -80 39 -108 1 -19 -26 -27 -29
-56 -24 -45 7 -133 -20 -185 -57 -60 -44 -81 -98 -81 -208 0 -77 -2 -89 -24
-111 -30 -32 -49 -97 -36 -122 6 -10 10 -28 10 -41 0 -13 4 -28 8 -33 5 -6 14
-29 20 -52 13 -42 70 -103 97 -103 22 0 18 -13 -12 -41 -54 -50 -267 -180
-275 -169 -2 3 -30 36 -63 74 -59 69 -102 96 -150 96 -25 0 -33 18 -16 35 10
11 163 336 192 408 23 59 59 187 67 242 6 47 6 68 -3 111 -5 20 -1 42 9 62 19
36 21 147 5 207 -11 40 -89 127 -138 153 -45 23 -143 34 -221 23z"/>
</g>
</svg>
