<?xml version="1.0" standalone="no"?>
<!DOCTYPE svg PUBLIC "-//W3C//DTD SVG 20010904//EN"
 "http://www.w3.org/TR/2001/REC-SVG-20010904/DTD/svg10.dtd">
<svg version="1.0" xmlns="http://www.w3.org/2000/svg"
 width="1075.000000pt" height="1280.000000pt" viewBox="0 0 1075.000000 1280.000000"
 preserveAspectRatio="xMidYMid meet">
<metadata>
Created by potrace 1.15, written by Peter Selinger 2001-2017
</metadata>
<g transform="translate(0.000000,1280.000000) scale(0.100000,-0.100000)"
fill="#000000" stroke="none">
<path d="M8049 12796 c-2 -2 -24 -7 -49 -10 -50 -6 -106 -19 -163 -36 -65 -19
-209 -110 -276 -174 -102 -98 -183 -235 -180 -303 1 -21 -11 -85 -28 -143 -51
-179 -57 -223 -45 -340 l11 -105 -32 -90 c-30 -85 -32 -98 -31 -230 l0 -140
47 -106 c57 -127 154 -290 234 -394 32 -42 64 -85 71 -94 11 -16 4 -23 -78
-70 -177 -103 -323 -229 -384 -334 -14 -23 -44 -87 -67 -142 -57 -139 -292
-664 -448 -1005 -72 -156 -131 -294 -131 -304 0 -11 17 -37 38 -59 l37 -38 1
-137 c1 -157 21 -264 85 -447 70 -204 209 -502 317 -682 17 -28 32 -70 36
-101 4 -29 18 -85 32 -125 18 -51 25 -91 24 -138 -1 -100 19 -240 50 -351 15
-54 26 -108 24 -121 -10 -60 -95 -521 -108 -582 -8 -41 -11 -76 -6 -85 5 -8
33 -22 62 -30 l53 -16 -3 -154 c-26 -1419 -96 -3443 -133 -3869 l-9 -115 35
-67 c40 -76 42 -104 20 -232 -34 -198 -95 -274 -236 -301 -21 -3 -43 -14 -50
-22 -7 -9 -45 -32 -83 -51 -182 -91 -337 -227 -395 -345 -30 -60 -32 -70 -29
-159 l3 -94 35 -17 c114 -55 326 -83 560 -75 184 7 317 31 511 91 161 50 312
77 469 85 131 6 135 7 147 31 12 25 14 25 138 25 161 0 155 -7 155 172 l0 134
64 80 c77 94 72 69 86 424 29 740 34 998 34 1770 0 808 -2 920 -35 1460 -10
152 -9 199 1 235 l13 45 35 -75 c78 -169 151 -435 191 -691 11 -68 54 -263 96
-434 81 -331 89 -375 189 -1070 139 -957 219 -1586 247 -1930 6 -77 15 -147
20 -156 24 -47 189 -121 317 -142 l75 -13 13 -61 c36 -179 162 -292 366 -330
90 -16 310 -12 443 9 145 22 298 94 312 147 16 62 -62 240 -144 330 l-54 60
-39 392 c-104 1029 -161 1454 -262 1944 -289 1410 -558 2808 -558 2908 0 13 8
17 36 17 48 0 74 16 74 45 0 14 -13 73 -29 132 -39 144 -67 273 -106 477 l-32
171 76 88 c94 109 178 240 225 352 19 47 56 112 80 144 171 222 326 520 402
776 78 259 99 569 55 800 -20 105 -121 486 -161 610 -83 256 -206 533 -311
701 -121 194 -296 387 -394 433 -49 23 -517 201 -725 276 -58 21 -116 48 -130
61 -33 30 -91 54 -133 54 l-34 0 -6 72 c-3 39 -4 75 -1 80 3 4 25 8 50 8 25 0
58 7 73 15 112 57 202 328 160 480 -6 23 -28 57 -51 80 l-40 40 11 69 c8 47
20 78 36 98 14 16 25 40 25 52 0 12 6 28 13 35 16 16 15 220 -2 286 -16 63
-74 185 -119 250 -107 157 -317 267 -542 285 -136 11 -135 11 -141 6z m1490
-3906 c62 -146 119 -271 128 -277 9 -7 32 -11 52 -8 20 2 57 6 82 9 l46 5 -9
-52 c-5 -29 -13 -185 -18 -347 -7 -236 -12 -312 -28 -380 -28 -119 -66 -230
-117 -337 -43 -91 -44 -93 -79 -93 -19 0 -41 -2 -49 -5 -15 -6 -17 16 -52 420
-38 442 -86 1351 -71 1334 2 -2 54 -123 115 -269z m-2255 -508 c16 -125 27
-348 16 -335 -4 5 -22 95 -40 202 -30 178 -32 198 -20 250 12 51 14 54 21 28
4 -15 14 -80 23 -145z"/>
<path d="M2835 12649 c-172 -26 -303 -90 -429 -208 -104 -99 -188 -240 -185
-313 1 -24 -8 -74 -20 -113 -53 -171 -63 -240 -52 -358 10 -105 9 -114 -13
-176 -60 -168 -60 -315 3 -466 51 -126 147 -291 237 -412 l73 -97 -67 -36
c-159 -87 -319 -206 -383 -283 -192 -238 -335 -764 -381 -1409 l-12 -173 -55
-46 c-42 -34 -71 -48 -116 -58 -143 -31 -320 -135 -478 -280 -69 -63 -96 -81
-118 -81 -61 0 -109 -41 -109 -92 0 -13 -12 -40 -26 -59 -95 -125 -106 -269
-29 -390 19 -30 49 -83 68 -119 56 -104 181 -192 316 -221 38 -9 68 -23 94
-46 41 -37 67 -40 121 -18 32 14 57 14 174 5 221 -16 254 -14 367 25 55 19
114 35 132 35 18 0 55 5 82 11 66 14 66 14 63 -24 -17 -183 -111 -770 -183
-1140 -30 -156 -37 -212 -29 -227 9 -17 64 -40 98 -40 15 0 15 -28 2 -515 -5
-203 -14 -550 -20 -770 -35 -1345 -72 -2289 -106 -2697 -6 -75 -6 -78 31 -144
l37 -68 -11 -90 c-19 -163 -51 -244 -128 -322 -37 -37 -62 -53 -108 -68 -33
-10 -71 -24 -85 -31 -299 -157 -452 -283 -519 -425 -32 -69 -43 -216 -18 -253
45 -68 459 -126 707 -98 173 19 233 32 435 92 188 55 322 79 475 86 141 6 180
17 180 52 0 10 5 31 10 47 l10 29 106 -3 c156 -5 154 -7 154 166 l0 138 61 74
c34 41 65 84 70 95 10 23 42 376 64 695 17 258 34 668 43 1070 l7 295 93 -650
c133 -940 201 -1482 227 -1817 7 -85 8 -89 43 -119 50 -45 145 -87 252 -112
l90 -22 0 -45 c0 -61 25 -155 55 -206 55 -94 153 -163 286 -201 84 -24 378
-23 516 1 152 26 302 95 318 145 9 30 -21 144 -60 220 -19 39 -61 98 -93 133
-51 55 -58 68 -60 106 -3 101 -88 917 -138 1322 -44 364 -66 517 -109 765 -29
162 -44 307 -80 770 -70 871 -116 1413 -191 2222 l-7 72 41 7 c23 3 49 15 58
25 15 17 16 27 6 87 -6 37 -47 281 -91 542 -64 382 -152 949 -186 1206 -6 40
-5 42 27 48 65 13 105 50 147 138 52 109 111 287 157 478 20 85 38 156 38 157
1 1 23 -3 50 -9 45 -9 50 -8 72 13 21 22 24 39 38 229 30 393 40 747 28 995
-7 127 -18 255 -25 285 -45 183 -201 357 -410 456 -88 41 -805 314 -826 314
-6 0 -25 13 -43 29 -45 38 -65 48 -120 56 -44 7 -48 10 -48 35 0 15 -3 42 -6
59 -6 30 -6 31 32 31 106 0 181 83 235 260 43 142 25 275 -48 343 -29 27 -29
28 -18 85 7 31 23 74 37 94 36 52 52 148 45 266 -7 108 -14 137 -60 232 -48
100 -103 181 -142 207 -19 13 -35 28 -35 33 0 7 -66 52 -130 88 -132 74 -340
107 -505 81z"/>
<path d="M1180 9693 c0 -10 38 -220 85 -467 47 -246 85 -452 85 -457 0 -11 27
-12 34 -1 3 5 -34 218 -82 473 -73 384 -91 465 -105 467 -11 2 -17 -3 -17 -15z"/>
<path d="M551 9491 c-11 -7 30 -85 199 -373 118 -199 223 -380 234 -400 23
-41 24 -42 45 -29 10 6 -40 99 -215 397 -125 214 -232 394 -238 401 -7 8 -16
9 -25 4z"/>
<path d="M1016 9282 c-3 -5 32 -124 76 -266 64 -203 85 -256 97 -254 9 2 16
10 15 18 -1 8 -36 126 -79 263 -72 227 -91 268 -109 239z"/>
<path d="M11 9136 c-12 -15 2 -29 409 -417 295 -280 275 -263 288 -246 10 11
-43 66 -266 278 -439 420 -418 401 -431 385z"/>
<path d="M545 8950 c-9 -15 295 -389 312 -383 8 3 12 12 9 19 -10 26 -291 373
-303 373 -6 1 -15 -3 -18 -9z"/>
</g>
</svg>
