<?xml version="1.0" standalone="no"?>
<!DOCTYPE svg PUBLIC "-//W3C//DTD SVG 20010904//EN"
 "http://www.w3.org/TR/2001/REC-SVG-20010904/DTD/svg10.dtd">
<svg version="1.0" xmlns="http://www.w3.org/2000/svg"
 width="845.000000pt" height="1280.000000pt" viewBox="0 0 845.000000 1280.000000"
 preserveAspectRatio="xMidYMid meet">
<metadata>
Created by potrace 1.15, written by Peter Selinger 2001-2017
</metadata>
<g transform="translate(0.000000,1280.000000) scale(0.100000,-0.100000)"
fill="#000000" stroke="none">
<path d="M1325 12790 c-277 -39 -495 -154 -733 -384 -281 -272 -490 -630 -556
-958 -71 -347 -33 -684 135 -1205 135 -416 378 -861 783 -1428 238 -334 412
-532 801 -912 241 -235 249 -244 210 -237 -22 3 -74 19 -115 34 -135 51 -164
48 -162 -14 2 -46 43 -127 93 -181 49 -53 110 -80 258 -113 106 -23 136 -26
336 -26 285 1 779 36 985 70 212 36 471 116 644 199 137 67 179 76 297 69 96
-6 105 -5 484 60 77 13 141 23 143 21 2 -2 -20 -48 -47 -104 -67 -132 -77
-181 -57 -260 18 -72 73 -186 121 -253 40 -54 42 -63 19 -76 -26 -15 -64 -197
-71 -337 -5 -109 -8 -125 -35 -174 -27 -48 -29 -59 -23 -111 6 -54 5 -58 -19
-76 -29 -21 -32 -39 -21 -135 6 -56 4 -73 -14 -113 -54 -122 -52 -256 5 -451
l37 -130 1 -260 c1 -248 2 -262 23 -301 12 -23 41 -56 63 -74 22 -18 47 -45
56 -61 17 -35 11 -81 -41 -304 -37 -157 -43 -222 -24 -258 6 -12 32 -43 57
-69 38 -40 45 -54 50 -97 2 -27 -3 -324 -13 -658 -21 -734 -19 -857 19 -965
35 -99 88 -174 151 -213 l49 -30 162 1 162 0 11 -75 c28 -199 152 -1357 154
-1441 2 -89 0 -99 -28 -149 -38 -69 -76 -100 -235 -195 -125 -75 -217 -118
-359 -167 -71 -25 -121 -62 -121 -88 0 -68 253 -171 389 -158 69 6 258 79 365
141 83 47 142 56 232 32 84 -22 101 -20 133 12 37 36 89 175 103 271 11 73 10
84 -20 202 -19 72 -32 150 -32 184 0 53 39 341 86 630 30 191 3 491 -75 828
-12 48 -21 90 -21 92 0 10 90 48 333 139 142 54 318 124 391 156 220 97 278
111 536 130 145 11 165 15 320 65 212 69 270 78 442 70 159 -8 231 6 279 55
58 58 32 119 -64 149 -97 30 -303 118 -396 167 -150 81 -216 130 -245 184 -32
59 -70 75 -148 65 -59 -8 -98 -40 -98 -81 0 -61 -109 -212 -179 -248 -39 -20
-201 -42 -496 -66 -282 -24 -332 -30 -479 -65 -195 -46 -260 -44 -285 11 -14
31 -14 62 -1 189 6 55 21 231 35 390 23 266 24 295 10 345 -30 112 -17 123
123 114 73 -6 90 -4 101 9 11 14 9 24 -14 64 l-27 48 62 310 c39 195 64 347
67 410 10 192 -34 297 -220 526 -241 298 -290 374 -322 496 -24 93 -19 136 34
293 83 243 364 930 381 930 4 0 10 -15 14 -32 4 -18 38 -98 77 -178 63 -128
79 -152 142 -215 54 -52 94 -81 157 -112 93 -45 208 -88 277 -104 61 -13 73
-2 73 72 l0 58 104 -50 c113 -54 174 -65 202 -38 19 20 20 94 3 237 -18 147
-20 146 157 127 122 -13 115 5 -80 205 -134 137 -143 149 -164 213 -26 78 -28
144 -8 242 8 39 27 176 41 305 23 196 26 259 21 382 -4 112 -2 165 9 218 33
157 12 375 -52 535 -94 237 -222 380 -410 459 -75 31 -227 76 -258 76 -13 0
-41 -15 -63 -33 -53 -45 -228 -114 -250 -101 -10 6 -28 31 -40 57 -27 53 -33
125 -52 597 -24 612 -42 775 -97 892 -25 53 -61 94 -226 257 -246 244 -282
287 -333 403 -44 101 -77 134 -101 101 -7 -9 -13 -29 -13 -44 0 -15 -4 -30 -9
-33 -4 -3 -73 40 -152 95 -271 189 -375 244 -559 292 -94 24 -142 30 -260 34
-314 11 -581 -72 -929 -287 -109 -68 -189 -140 -339 -307 -85 -94 -119 -116
-148 -92 -23 19 -32 48 -60 189 -20 105 -33 143 -80 238 -31 62 -93 168 -137
235 -216 326 -570 566 -935 632 -102 19 -371 28 -457 15z m4479 -1838 c60 -68
59 -158 -8 -529 -81 -444 -80 -438 -79 -663 1 -154 9 -284 33 -520 30 -290 32
-324 21 -432 -12 -128 -23 -164 -55 -175 -12 -4 -91 -7 -176 -8 -174 0 -148 8
-345 -105 -55 -32 -198 -97 -320 -145 -121 -48 -326 -129 -455 -181 -346 -138
-486 -178 -763 -219 -122 -19 -154 -30 -400 -144 -205 -95 -306 -130 -455
-156 -48 -9 -98 -18 -112 -21 -50 -11 -3 14 155 81 546 233 730 328 1075 558
536 356 1070 770 1248 966 171 189 259 310 342 472 156 305 214 573 236 1096
8 175 9 178 58 125z"/>
</g>
</svg>
