<?xml version="1.0" standalone="no"?>
<!DOCTYPE svg PUBLIC "-//W3C//DTD SVG 20010904//EN"
 "http://www.w3.org/TR/2001/REC-SVG-20010904/DTD/svg10.dtd">
<svg version="1.0" xmlns="http://www.w3.org/2000/svg"
 width="1022.000000pt" height="1280.000000pt" viewBox="0 0 1022.000000 1280.000000"
 preserveAspectRatio="xMidYMid meet">
<metadata>
Created by potrace 1.15, written by Peter Selinger 2001-2017
</metadata>
<g transform="translate(0.000000,1280.000000) scale(0.100000,-0.100000)"
fill="#000000" stroke="none">
<path d="M43 12792 l-43 -3 0 -6396 0 -6396 1938 6 c1245 4 1973 10 2037 16
114 12 205 36 206 54 0 7 0 32 -1 57 -4 134 172 404 245 376 30 -11 38 21 29
121 -5 54 -7 106 -6 116 3 29 44 75 73 82 50 12 86 68 118 184 11 40 30 91 43
114 19 35 29 42 53 42 88 0 64 -154 -45 -299 -68 -90 -89 -167 -100 -368 -14
-235 -26 -314 -57 -362 -16 -25 -27 -57 -29 -88 l-3 -48 2859 0 2860 0 0 1096
c0 727 -3 1093 -10 1089 -5 -3 -10 3 -10 14 0 12 -4 21 -8 21 -5 0 -62 -75
-127 -167 -230 -325 -329 -439 -400 -463 -58 -19 -69 -2 -60 85 16 140 13 170
-20 205 -43 45 -211 127 -278 135 -48 6 -69 2 -159 -29 -177 -61 -509 -103
-683 -86 -95 9 -115 16 -115 41 0 28 -29 38 -102 32 -58 -5 -71 -3 -105 18
-34 22 -48 24 -148 23 -256 -4 -640 -106 -679 -182 -22 -43 -61 -74 -88 -70
-39 5 -35 51 17 178 26 62 43 116 38 121 -5 5 -22 2 -38 -7 -41 -21 -165 -115
-231 -175 -56 -50 -90 -61 -101 -33 -3 9 2 28 11 43 35 54 76 147 76 174 0 25
-3 27 -38 27 -36 0 -171 -38 -210 -59 -32 -17 -32 -55 -1 -120 29 -60 59 -91
90 -91 42 0 183 -190 203 -272 13 -54 -81 -128 -163 -128 -59 0 -185 82 -348
226 -197 174 -352 297 -508 403 -162 110 -246 156 -310 172 -71 17 -103 35
-161 90 -33 30 -67 52 -95 59 -51 14 -207 14 -340 0 -486 -50 -754 -149 -987
-365 -157 -145 -452 -337 -737 -478 -172 -86 -284 -127 -347 -127 -46 0 -68
-13 -68 -41 0 -46 -171 -169 -490 -353 -102 -59 -218 -133 -258 -164 -178
-138 -182 -141 -238 -152 -60 -13 -114 -7 -185 20 -63 23 -122 66 -223 159
-81 75 -170 131 -208 131 -51 0 -225 252 -329 478 -60 130 -60 137 4 200 32
32 209 156 438 306 529 350 540 357 661 481 105 108 228 252 228 267 0 4 -32
-13 -70 -38 -160 -103 -293 -141 -338 -96 -12 12 -24 36 -27 55 -16 85 68 174
381 409 224 167 385 278 462 317 25 13 47 33 54 49 6 15 15 97 20 182 5 85 13
159 17 163 4 4 32 -19 61 -52 92 -107 69 -118 645 319 278 212 366 228 710
133 91 -25 204 -59 580 -177 115 -36 215 -66 221 -66 6 0 134 62 285 138 151
76 300 146 333 156 87 28 148 18 286 -44 138 -62 378 -143 590 -200 330 -88
615 -171 674 -196 33 -14 77 -29 96 -33 47 -11 202 -72 275 -109 66 -33 98
-63 114 -104 9 -24 7 -29 -11 -39 -35 -19 -211 -27 -368 -17 -241 14 -496 65
-603 120 -167 85 -397 104 -397 34 0 -28 35 -62 80 -78 l35 -12 -30 -8 c-17
-4 -192 -15 -390 -23 -340 -14 -415 -22 -415 -47 0 -14 76 -28 200 -38 121
-10 505 -31 545 -30 11 1 92 3 180 6 172 6 816 -10 1055 -26 580 -39 966 -115
1507 -295 380 -127 659 -238 891 -356 l192 -98 0 310 c0 291 -1 309 -18 309
-10 0 -23 5 -28 10 -6 6 -48 15 -95 20 -207 24 -712 139 -899 205 -219 77
-359 125 -425 145 -124 38 -248 104 -321 172 -91 85 -143 163 -221 325 -93
196 -172 302 -256 345 -45 23 -62 14 -72 -35 -19 -92 -260 -465 -359 -557
l-27 -25 9 25 c5 14 42 94 81 178 40 85 94 220 121 300 175 528 361 1535 359
1947 0 112 -14 159 -49 163 -14 2 -29 7 -33 11 -12 11 -10 179 3 236 6 28 20
80 32 117 18 55 19 70 8 82 -38 47 -273 -26 -375 -115 -31 -28 -35 -37 -35
-79 0 -44 -5 -54 -50 -106 -27 -31 -51 -64 -51 -73 -1 -9 -3 -65 -3 -126 -2
-122 -23 -200 -78 -288 -54 -86 -116 -97 -304 -56 -284 61 -504 179 -753 401
-119 107 -198 168 -218 168 -34 0 8 -109 97 -255 65 -105 100 -186 100 -228 0
-34 -4 -40 -37 -54 -33 -14 -53 -14 -158 -4 -66 7 -147 16 -180 21 -146 22
-522 33 -710 21 -214 -13 -273 -23 -331 -57 -85 -49 -201 -74 -341 -74 -76 0
-83 2 -102 26 -16 21 -21 41 -21 93 0 54 10 96 54 226 64 187 71 229 40 233
-23 3 -114 -56 -254 -165 -47 -36 -113 -79 -148 -95 -66 -30 -68 -32 -52 -73
14 -38 -8 -82 -67 -135 -107 -95 -267 -170 -364 -170 -53 0 -60 3 -81 30 -12
17 -29 30 -37 30 -9 0 -37 -23 -62 -52 -44 -49 -48 -52 -71 -40 -54 29 -141
182 -131 232 7 37 -62 137 -165 240 -83 82 -91 87 -174 114 -135 43 -278 118
-323 167 -35 39 -37 45 -32 89 6 52 -5 76 -38 82 -30 5 -56 68 -62 154 -7 89
-26 124 -61 105 -38 -20 -55 -14 -47 16 16 64 73 90 227 104 132 11 208 24
261 45 54 20 71 19 64 -8 -26 -96 260 -238 477 -238 189 1 498 112 709 254
125 84 225 136 332 171 136 44 181 74 195 126 14 51 42 76 102 88 75 17 122
45 206 127 101 98 161 128 267 132 97 5 169 -17 295 -87 81 -46 193 -93 290
-122 33 -11 53 -26 78 -59 44 -59 120 -101 255 -140 179 -53 300 -70 522 -77
298 -8 303 -6 494 216 75 87 111 101 254 101 62 -1 159 -5 216 -10 58 -5 107
-8 109 -5 7 6 -38 332 -58 428 -11 48 -32 116 -47 150 -31 68 -34 114 -19 267
7 69 5 97 -8 143 -40 137 -162 200 -319 163 -38 -9 -95 -16 -127 -16 -54 0
-62 3 -104 39 -69 59 -98 66 -286 65 -187 -1 -344 -22 -635 -84 -334 -71 -451
-80 -945 -66 -351 10 -491 3 -595 -30 -139 -43 -424 -56 -630 -29 -126 17
-163 29 -238 77 -56 36 -67 30 -67 -34 0 -49 -26 -75 -82 -82 -24 -3 -144 -7
-268 -9 -279 -5 -304 -12 -436 -122 -123 -102 -220 -140 -254 -100 -21 25 -2
63 72 141 92 96 223 203 368 297 175 115 229 156 246 188 16 32 35 36 97 18
49 -13 75 -4 83 29 10 41 23 52 60 52 26 0 36 6 48 28 22 43 29 132 16 218
-15 101 -30 135 -78 181 -32 32 -40 47 -46 90 -12 96 -82 109 -125 24 -12 -22
-25 -42 -31 -46 -32 -20 -168 95 -201 170 -22 50 -25 105 -14 265 8 101 0 126
-23 76 -6 -14 -22 -32 -36 -41 -45 -30 -80 9 -121 135 -23 69 -52 114 -88 135
-36 21 -53 9 -62 -46 -7 -42 -27 -59 -69 -59 -34 0 -33 20 2 73 41 60 52 100
59 202 9 134 64 228 222 377 101 95 177 140 272 162 74 18 101 36 151 102 44
58 60 65 193 93 131 28 203 37 420 55 308 26 466 31 463 16 -3 -15 59 -33 67
-20 11 19 136 49 225 55 100 7 177 21 198 38 6 5 12 22 12 37 0 22 12 37 51
69 81 64 135 66 276 10 68 -28 95 -33 213 -39 103 -6 160 -15 240 -38 58 -16
151 -37 205 -47 128 -21 230 -47 330 -84 175 -64 249 -105 265 -147 6 -16 22
-26 52 -34 92 -24 109 -39 156 -133 40 -80 49 -91 88 -107 37 -16 45 -25 54
-61 13 -49 44 -100 108 -178 63 -77 117 -197 147 -321 45 -191 53 -210 106
-261 52 -50 63 -87 36 -123 -11 -15 -22 -17 -58 -12 -24 3 -55 7 -69 9 l-25 2
4 -132 c3 -125 2 -132 -18 -145 -28 -17 -26 -43 9 -104 42 -74 85 -98 161 -91
l59 5 -50 -47 c-36 -34 -50 -55 -50 -74 0 -101 209 -525 268 -545 10 -3 11 35
6 190 -7 191 -3 248 16 248 25 0 55 -171 95 -527 37 -338 57 -421 110 -445 20
-9 32 -7 70 13 47 25 264 189 265 200 0 4 -17 10 -37 14 -21 4 -52 15 -69 26
-17 10 -41 19 -53 19 -76 0 -88 51 -65 277 16 154 16 198 5 391 -19 347 -45
545 -107 839 -36 167 -122 439 -195 610 -48 115 -141 294 -210 405 -27 44 -49
85 -49 92 0 36 -101 159 -269 329 -252 256 -391 372 -621 518 -573 364 -1281
559 -2025 559 -257 0 -462 -17 -712 -61 -341 -58 -536 -27 -574 92 -30 92 -36
92 -1694 94 -759 1 -1399 -1 -1422 -3z m2795 -2518 c41 -28 18 -104 -31 -104
-53 0 -77 75 -35 104 12 9 27 16 33 16 6 0 21 -7 33 -16z m4783 -694 c23 -75
23 -145 0 -145 -38 0 -94 192 -70 237 l12 22 18 -23 c11 -13 28 -54 40 -91z
m-644 -1236 c95 -45 78 -78 -45 -90 -79 -7 -326 6 -338 19 -12 12 15 34 77 62
108 48 216 51 306 9z m-69 -179 c6 -3 12 -9 12 -15 0 -13 -139 -13 -160 0 -13
8 -13 10 0 14 40 14 105 14 148 1z m-3343 -161 c69 -40 64 -44 -74 -59 -30 -3
-72 -13 -95 -20 -61 -22 -113 -20 -121 5 -7 21 5 49 29 69 58 48 184 50 261 5z
m-2002 -44 c58 -51 127 -154 127 -189 0 -58 -50 -68 -104 -20 -43 37 -106 159
-106 204 0 58 21 60 83 5z m2085 -97 c-8 -40 -202 -103 -230 -75 -12 12 42 43
127 73 67 24 108 25 103 2z m-2046 -843 c52 -43 90 -125 96 -210 3 -42 9 -70
16 -70 6 0 22 16 35 35 24 35 53 51 72 40 24 -16 129 -168 139 -203 5 -20 10
-93 10 -162 0 -138 11 -194 40 -210 32 -17 27 -80 -9 -119 -37 -40 -65 -40
-178 0 -104 37 -157 73 -220 148 -46 56 -161 280 -182 356 -13 49 -15 192 -2
200 5 3 22 -13 38 -35 15 -22 34 -40 41 -40 15 0 13 -17 21 140 4 75 11 141
15 148 11 19 29 14 68 -18z m4945 -1092 c110 -117 343 -512 343 -582 0 -43
-37 -98 -72 -107 -31 -8 -34 -3 -13 25 16 21 20 56 8 56 -5 0 -30 -7 -58 -15
-62 -19 -94 -13 -130 25 -23 24 -37 30 -71 30 -30 0 -65 11 -117 38 -83 43
-297 189 -297 202 0 26 337 360 364 360 7 0 26 -15 43 -32z m-2122 -164 c15
-6 95 -152 95 -174 0 -6 14 -46 31 -90 26 -68 76 -154 145 -248 21 -29 14 -35
-21 -22 -32 12 -80 -2 -89 -25 -23 -60 -480 -75 -587 -20 -25 13 -28 19 -23
48 8 46 104 239 164 330 59 89 144 185 174 197 25 10 88 12 111 4z m1625 -714
c30 -5 69 -14 85 -20 29 -11 29 -12 10 -26 -23 -17 -183 -68 -355 -113 -124
-33 -321 -51 -568 -51 -134 0 -403 37 -380 52 7 4 76 29 153 55 l140 48 220 0
c215 0 223 1 340 32 66 18 134 34 150 36 34 5 125 -1 205 -13z m3508 -3542
c18 -18 14 -63 -6 -82 -18 -15 -20 -15 -34 1 -25 29 -40 64 -34 79 7 17 57 19
74 2z m-220 -275 c2 -25 -2 -35 -22 -48 -23 -15 -26 -15 -50 0 -35 23 -33 41
7 65 43 27 61 22 65 -17z"/>
<path d="M1686 6511 c-43 -29 -53 -51 -30 -68 43 -31 98 0 92 54 -4 34 -24 39
-62 14z"/>
<path d="M3757 9482 c-36 -40 -5 -114 52 -127 43 -9 101 18 101 48 0 27 -42
71 -83 86 -39 15 -51 14 -70 -7z"/>
<path d="M8045 8402 c-14 -15 -38 -41 -54 -59 -20 -23 -41 -34 -71 -39 -68
-11 -85 -32 -84 -101 1 -96 40 -151 118 -168 41 -9 96 -66 96 -100 0 -25 -3
-27 -27 -21 -66 16 -68 16 -71 -44 -7 -121 38 -400 94 -576 l35 -112 28 27
c15 14 45 65 66 114 21 48 42 87 47 87 12 0 10 -80 -3 -142 -15 -68 -33 -94
-80 -118 -96 -50 -43 -130 85 -130 118 0 136 38 136 292 0 266 -21 393 -111
658 -32 96 -64 211 -70 255 -12 91 -25 121 -74 169 l-34 34 -26 -26z"/>
<path d="M3880 6934 c-25 -8 -124 -32 -220 -54 -240 -55 -310 -94 -245 -136
73 -48 362 16 503 110 81 54 56 108 -38 80z"/>
<path d="M8180 6751 c-43 -9 -60 -18 -60 -34 0 -7 -12 -51 -26 -99 -27 -87
-27 -88 -8 -109 25 -28 83 -21 137 18 45 31 117 150 117 194 0 23 -5 27 -37
33 -45 7 -75 6 -123 -3z"/>
<path d="M5532 3863 c-28 -5 -39 -28 -22 -47 23 -28 163 -77 303 -106 215 -45
258 -58 369 -110 73 -35 89 -37 111 -12 34 37 8 87 -51 98 -41 8 -77 29 -139
85 -71 65 -229 100 -436 98 -62 -1 -122 -4 -135 -6z"/>
<path d="M4090 3834 c-215 -33 -371 -94 -418 -164 -14 -22 -22 -46 -20 -65 4
-43 35 -44 91 -1 100 77 160 91 457 106 252 13 328 35 267 74 -62 41 -260 67
-377 50z"/>
<path d="M4253 3512 c-28 -10 -67 -31 -85 -45 -100 -81 -157 -116 -213 -131
-60 -15 -88 -38 -139 -111 -28 -41 -180 -136 -353 -220 -267 -130 -468 -262
-710 -463 -219 -183 -339 -258 -452 -281 -66 -14 -103 -35 -125 -71 -32 -56
-10 -137 48 -175 72 -48 289 36 711 275 105 59 271 148 370 198 261 130 371
175 417 172 39 -4 45 -1 94 44 58 51 88 62 212 77 67 7 117 8 180 0 48 -6 154
-18 235 -26 81 -9 191 -25 245 -37 112 -25 356 -31 405 -10 19 8 101 12 240
12 l212 1 -37 20 c-51 26 -58 44 -51 125 4 49 1 85 -11 123 -31 104 -122 245
-189 293 -43 31 -152 56 -338 78 -91 11 -201 29 -245 40 -75 19 -105 32 -219
92 -68 37 -136 43 -202 20z"/>
<path d="M2671 2933 c-118 -73 -211 -156 -194 -173 9 -9 24 -5 70 19 66 36
208 147 236 185 18 25 18 26 0 26 -11 0 -61 -26 -112 -57z"/>
<path d="M5710 2680 c-14 -3 -25 -12 -25 -20 0 -11 15 -16 54 -18 29 -2 61 0
69 3 38 15 -51 47 -98 35z"/>
<path d="M6441 2331 c-12 -8 -12 -15 -4 -33 16 -35 82 -107 126 -139 73 -53
98 -30 67 62 -26 75 -75 119 -132 119 -24 0 -49 -4 -57 -9z"/>
<path d="M2124 1551 c-57 -35 -85 -103 -49 -117 22 -9 119 42 134 70 31 57
-22 86 -85 47z"/>
</g>
</svg>
