<?xml version="1.0" standalone="no"?>
<!DOCTYPE svg PUBLIC "-//W3C//DTD SVG 20010904//EN"
 "http://www.w3.org/TR/2001/REC-SVG-20010904/DTD/svg10.dtd">
<svg version="1.0" xmlns="http://www.w3.org/2000/svg"
 width="725.000000pt" height="1280.000000pt" viewBox="0 0 725.000000 1280.000000"
 preserveAspectRatio="xMidYMid meet">
<metadata>
Created by potrace 1.15, written by Peter Selinger 2001-2017
</metadata>
<g transform="translate(0.000000,1280.000000) scale(0.100000,-0.100000)"
fill="#000000" stroke="none">
<path d="M5046 12767 l-6 -32 -377 0 c-381 -1 -522 -8 -853 -46 -737 -85
-1541 -283 -2160 -534 -690 -279 -1184 -580 -1539 -938 l-114 -115 135 -198
c348 -513 1068 -1620 1152 -1774 64 -116 179 -295 262 -406 60 -81 300 -463
320 -509 23 -53 366 -603 401 -642 12 -14 169 -261 349 -550 306 -491 327
-529 341 -596 36 -180 121 -370 226 -510 59 -78 209 -220 295 -279 63 -44 133
-68 195 -68 68 0 93 -18 112 -82 44 -150 70 -450 54 -633 -35 -409 -260 -821
-670 -1226 -114 -112 -154 -143 -376 -291 -136 -91 -363 -232 -503 -313 -140
-81 -296 -176 -346 -210 -49 -34 -112 -72 -140 -84 -92 -41 -161 -128 -219
-275 -75 -191 -116 -433 -155 -922 -5 -66 -23 -199 -39 -295 -17 -96 -37 -232
-46 -304 -16 -129 -16 -130 5 -144 15 -10 20 -24 20 -55 l0 -41 683 -338 c376
-185 694 -340 707 -344 103 -28 1010 92 1610 213 627 126 1082 272 1560 498
96 46 199 92 229 102 40 14 65 31 95 67 23 26 71 70 107 97 36 26 89 70 118
96 l52 47 -3 101 c-2 58 -8 105 -14 111 -12 11 -14 21 -69 395 -39 258 -74
463 -106 610 -29 135 -106 394 -139 466 -68 152 -207 307 -365 410 -93 61
-103 70 -100 93 27 159 62 321 95 436 23 77 43 160 46 185 3 25 25 96 47 158
48 131 27 122 197 83 340 -79 571 -64 733 48 32 22 53 48 78 98 34 67 34 69
31 187 -3 143 13 389 28 448 6 24 22 81 36 128 39 138 63 265 80 430 8 85 22
175 31 200 38 113 55 187 78 342 39 262 33 436 -22 620 -26 87 -26 87 -8 144
14 44 15 61 7 75 -9 14 -7 32 9 81 15 44 20 78 16 113 -2 27 2 93 10 145 8 53
12 123 9 157 -3 39 -1 65 5 69 18 11 1 82 -41 174 -31 67 -134 367 -190 555
-5 17 -23 140 -40 275 -58 465 -71 554 -83 562 -7 5 -61 33 -120 63 -60 30
-100 55 -90 55 10 0 66 -11 126 -24 59 -13 107 -20 107 -16 0 4 -14 52 -31
106 -104 336 -211 759 -289 1134 -68 332 -88 418 -98 434 -4 6 -81 382 -172
836 l-165 825 -104 51 c-215 107 -517 182 -881 219 -52 6 -58 9 -80 45 -14 22
-28 40 -31 40 -4 0 -10 -15 -13 -33z m-1110 -5284 c-7 -56 -45 -142 -85 -191
-40 -51 -126 -100 -186 -108 l-50 -6 66 41 c116 71 222 195 244 284 11 44 18
31 11 -20z m-957 -482 c-19 -22 -37 -40 -41 -40 -5 -1 -8 17 -8 39 l0 40 41 0
41 0 -33 -39z"/>
</g>
</svg>
