<?xml version="1.0" standalone="no"?>
<!DOCTYPE svg PUBLIC "-//W3C//DTD SVG 20010904//EN"
 "http://www.w3.org/TR/2001/REC-SVG-20010904/DTD/svg10.dtd">
<svg version="1.0" xmlns="http://www.w3.org/2000/svg"
 width="1280.000000pt" height="1134.000000pt" viewBox="0 0 1280.000000 1134.000000"
 preserveAspectRatio="xMidYMid meet">
<metadata>
Created by potrace 1.15, written by Peter Selinger 2001-2017
</metadata>
<g transform="translate(0.000000,1134.000000) scale(0.100000,-0.100000)"
fill="#000000" stroke="none">
<path d="M10280 11330 c-8 -5 -38 -10 -66 -10 -28 0 -71 -7 -95 -16 -30 -10
-61 -13 -99 -9 -40 4 -63 1 -84 -10 -15 -8 -42 -15 -60 -15 -37 0 -44 -5 -73
-47 -14 -20 -23 -47 -23 -70 0 -54 -24 -86 -59 -78 -21 4 -32 0 -51 -20 -13
-14 -31 -25 -40 -25 -9 0 -34 -9 -55 -21 -22 -12 -58 -26 -80 -31 -38 -10 -59
-11 -152 -7 -36 2 -48 -4 -89 -39 -26 -23 -52 -42 -59 -42 -15 0 -45 -43 -45
-65 0 -8 -22 -31 -50 -51 -42 -30 -49 -39 -44 -62 4 -23 -2 -31 -40 -54 -37
-22 -45 -32 -48 -60 -2 -27 -12 -39 -55 -68 -33 -22 -58 -49 -69 -73 -16 -35
-21 -38 -46 -33 -16 3 -37 2 -46 -3 -9 -5 -24 -12 -33 -14 -9 -3 -21 -25 -27
-49 -14 -56 -43 -87 -75 -81 -19 4 -27 0 -32 -16 -7 -24 -13 -25 -50 -11 -24
9 -32 6 -70 -28 -41 -36 -70 -54 -107 -66 -10 -3 -18 -15 -18 -27 0 -12 -8
-23 -20 -26 -13 -4 -20 -14 -20 -29 0 -29 -24 -41 -44 -24 -27 21 -49 -50 -59
-190 -2 -25 -17 -76 -32 -115 -20 -48 -28 -85 -27 -118 3 -75 -17 -111 -74
-132 -27 -10 -65 -33 -84 -50 -19 -18 -56 -46 -81 -63 -51 -34 -59 -47 -59
-96 0 -50 -31 -70 -155 -100 -60 -15 -140 -35 -176 -46 -36 -11 -83 -20 -105
-20 -45 0 -70 -13 -60 -29 8 -13 18 -72 18 -111 1 -14 -15 -61 -35 -105 -64
-143 -88 -208 -118 -315 -53 -190 -81 -228 -222 -302 -68 -36 -113 -37 -278
-2 -18 4 -34 -2 -56 -20 -44 -37 -78 -47 -168 -50 -73 -3 -86 0 -153 32 -64
30 -79 34 -123 28 -53 -7 -55 -6 -139 76 -27 27 -31 28 -103 22 -51 -5 -76 -3
-81 5 -5 8 -13 8 -27 0 -17 -9 -32 1 -113 74 -51 46 -115 95 -140 108 -26 13
-52 31 -57 41 -5 10 -16 18 -24 18 -8 0 -27 14 -43 31 -25 27 -30 29 -41 15
-9 -11 -18 -13 -30 -7 -9 5 -42 14 -73 20 -50 11 -61 10 -95 -7 -45 -23 -83
-30 -102 -18 -15 10 -79 -56 -111 -115 -10 -20 -26 -39 -34 -42 -9 -4 -13 -13
-10 -22 4 -8 1 -22 -6 -30 -6 -8 -9 -23 -6 -33 5 -15 1 -21 -16 -25 -21 -6
-21 -7 -5 -25 23 -26 21 -40 -8 -54 -14 -6 -25 -19 -25 -29 0 -10 -4 -20 -9
-23 -5 -4 -5 -19 2 -36 10 -27 9 -32 -11 -46 -17 -12 -20 -19 -12 -34 5 -10 8
-25 6 -32 -2 -7 -7 -26 -10 -41 -5 -19 -12 -27 -23 -25 -12 2 -19 -7 -23 -29
-4 -17 -21 -48 -39 -69 -17 -21 -31 -46 -31 -56 0 -25 -18 -31 -52 -17 -29 12
-31 11 -77 -39 -25 -29 -52 -52 -59 -52 -6 0 -12 -4 -12 -9 0 -5 -10 -13 -22
-17 -41 -12 -78 -45 -78 -67 0 -24 -13 -46 -78 -131 -50 -66 -91 -86 -173 -86
l-59 0 0 -49 c0 -60 -26 -96 -79 -112 -29 -8 -43 -8 -60 0 -12 7 -36 9 -56 5
-22 -4 -41 -2 -50 6 -14 12 -51 10 -175 -6 -86 -12 -161 -6 -201 16 -61 31
-113 26 -182 -16 -32 -20 -59 -34 -61 -33 -9 14 -36 90 -43 119 -4 19 -8 67
-9 105 0 39 -5 84 -9 102 -6 28 -3 37 29 70 45 48 113 154 122 191 4 15 14 37
22 50 12 19 13 27 2 47 -9 17 -11 44 -6 90 6 55 4 66 -9 72 -11 4 -15 13 -11
27 4 15 -1 28 -14 39 -11 9 -17 22 -14 30 2 7 -4 22 -16 32 -11 10 -20 24 -20
30 0 7 -9 24 -21 39 -20 25 -21 44 -4 88 3 8 -4 25 -15 38 -15 17 -19 32 -14
55 5 26 1 34 -18 47 -13 9 -41 49 -62 89 -21 41 -47 83 -57 95 -10 11 -19 27
-19 36 0 20 -57 111 -98 158 -18 19 -40 45 -51 57 -12 13 -27 20 -39 16 -24
-6 -63 18 -117 72 l-40 40 -3 -1611 -2 -1611 -41 -6 c-28 -4 -52 -16 -75 -38
-30 -29 -36 -31 -58 -21 -20 9 -29 7 -50 -9 -20 -15 -34 -19 -56 -14 -37 8
-80 -16 -80 -45 0 -10 -7 -23 -15 -27 -8 -5 -21 -29 -28 -53 -15 -53 -41 -70
-109 -70 -36 0 -50 -4 -58 -19 -16 -32 -12 -76 11 -96 l20 -19 -29 -16 c-16
-8 -42 -24 -57 -34 -47 -33 -90 -25 -144 28 -57 56 -115 71 -246 63 -71 -4
-101 -11 -140 -31 -48 -25 -54 -26 -105 -15 -41 9 -65 9 -106 -1 -47 -11 -59
-11 -100 5 -26 10 -71 40 -101 66 -49 45 -57 49 -108 50 -30 1 -70 2 -87 3
-18 1 -41 -4 -50 -12 -25 -21 -48 -8 -48 28 0 38 -17 45 -78 33 -27 -5 -53 -8
-60 -5 -8 2 -12 27 -12 68 0 45 -4 64 -13 64 -7 0 -19 21 -26 46 -13 43 -13
46 9 61 24 17 24 46 0 113 -7 19 -14 41 -16 48 -2 8 -23 12 -57 12 -32 0 -59
5 -65 13 -6 7 -12 37 -14 67 -3 50 -5 55 -28 58 -13 2 -30 13 -38 23 -16 23
-35 24 -52 4 -7 -8 -29 -15 -49 -15 -48 0 -59 -9 -63 -50 -2 -27 -8 -36 -24
-38 -16 -2 -20 -8 -17 -23 3 -11 0 -19 -7 -19 -7 0 -9 -8 -5 -20 5 -17 1 -21
-24 -26 -37 -8 -40 -28 -8 -54 19 -16 20 -22 10 -39 -7 -11 -13 -30 -13 -40 0
-57 -46 -92 -69 -53 -10 15 -15 12 -48 -26 -28 -32 -48 -44 -76 -49 -59 -9
-64 -38 -16 -90 21 -23 41 -54 44 -70 20 -96 29 -114 65 -143 21 -17 45 -47
53 -69 9 -21 29 -48 46 -60 21 -16 31 -32 36 -64 4 -23 17 -64 30 -92 68 -146
105 -234 110 -265 4 -19 15 -64 25 -100 10 -36 23 -93 29 -128 7 -35 28 -99
47 -143 19 -44 39 -104 44 -134 5 -29 18 -72 30 -96 12 -23 29 -65 37 -93 8
-28 27 -73 42 -101 15 -27 43 -86 61 -130 19 -44 43 -93 53 -108 11 -16 34
-65 53 -109 18 -44 51 -111 73 -147 22 -36 52 -93 66 -125 15 -33 48 -83 74
-112 27 -29 51 -67 55 -84 7 -37 26 -66 111 -170 34 -41 67 -90 75 -108 7 -18
26 -51 42 -73 16 -22 33 -60 37 -84 5 -25 14 -52 22 -61 14 -17 22 -66 38
-234 5 -52 14 -108 20 -123 14 -36 14 -77 1 -77 -7 0 -8 -32 -4 -93 9 -130 -7
-176 -94 -267 -37 -39 -75 -70 -84 -70 -10 0 -36 17 -59 37 -35 32 -44 35 -67
27 -23 -8 -27 -15 -24 -42 3 -26 -1 -34 -22 -44 -29 -12 -31 -19 -15 -35 6 -6
13 -37 16 -69 2 -32 11 -66 18 -75 8 -8 15 -22 15 -30 1 -8 7 -25 15 -39 14
-24 14 -22 8 22 -5 43 -4 48 14 48 26 0 49 -27 57 -66 4 -17 18 -46 32 -65 37
-51 29 -56 -21 -10 -24 22 -53 41 -62 41 -13 0 0 -17 39 -55 58 -55 98 -118
98 -155 0 -11 12 -30 26 -43 56 -47 86 -84 113 -137 15 -30 39 -73 54 -95 15
-22 27 -47 27 -56 0 -8 9 -46 21 -83 23 -73 20 -116 -10 -116 -18 0 -51 -29
-51 -46 0 -5 -11 -26 -25 -46 -25 -37 -25 -37 -5 -48 20 -11 20 -11 -1 -40
l-22 -28 23 -32 c13 -18 27 -53 32 -79 5 -31 18 -56 39 -76 l31 -30 -4 67 c-3
47 -9 73 -22 87 -18 19 -18 22 -1 47 25 38 97 66 172 67 84 1 116 -21 123 -85
3 -25 12 -53 19 -62 10 -11 10 -20 3 -29 -8 -9 -10 -109 -3 -124 0 -2 25 6 53
18 51 20 178 34 178 20 0 -4 -5 -12 -11 -18 -6 -6 -8 -20 -5 -31 8 -24 79 -37
108 -19 16 10 23 7 48 -20 44 -49 47 -76 15 -124 -14 -23 -24 -43 -21 -46 3
-3 20 0 38 6 30 11 35 10 53 -12 11 -14 34 -28 52 -32 22 -4 43 -20 67 -53
l34 -47 99 0 c91 0 101 -2 140 -29 39 -26 46 -27 72 -16 20 8 32 21 36 40 9
40 47 71 94 77 30 4 41 10 41 23 0 22 29 47 59 52 16 2 40 22 65 56 23 29 54
61 71 72 40 26 118 34 205 21 83 -13 105 -5 76 28 -17 19 -17 20 15 36 53 28
168 21 262 -16 65 -26 93 -24 152 11 58 34 99 37 170 14 45 -16 53 -16 122 1
53 12 81 25 98 43 27 28 31 42 15 42 -19 0 -10 29 15 48 15 12 49 22 87 26 34
4 66 10 70 12 5 3 1 18 -9 34 -16 28 -16 30 3 51 29 32 60 41 159 43 75 2 97
6 130 26 59 37 145 34 255 -9 64 -25 94 -31 123 -27 40 7 160 -16 218 -40 20
-9 47 -14 60 -12 20 2 24 8 22 32 -5 68 41 96 159 97 61 0 99 -5 142 -21 33
-12 121 -30 195 -40 75 -10 153 -25 173 -34 21 -9 60 -16 87 -16 42 0 53 -4
70 -27 22 -27 57 -34 263 -57 l58 -6 -7 31 c-5 28 -2 36 27 59 18 15 38 42 44
60 28 83 131 102 275 51 92 -33 109 -37 232 -47 94 -8 103 1 60 61 -43 59 -40
86 12 139 102 102 255 134 400 83 40 -14 107 -28 150 -32 l78 -7 101 58 c55
32 122 63 147 70 26 6 64 24 86 38 21 15 50 29 64 32 50 11 79 26 115 59 21
19 52 43 71 54 32 18 146 107 299 230 38 31 95 74 126 96 151 105 269 206 280
239 9 27 20 37 57 51 25 10 69 39 98 65 28 25 72 61 96 78 25 17 88 77 139
134 52 57 149 159 215 228 66 69 135 151 152 182 18 31 46 65 63 75 17 10 47
43 66 74 19 32 40 59 48 62 8 3 17 20 21 37 5 25 21 41 73 74 37 24 107 83
155 131 66 64 100 90 130 99 37 10 56 29 155 151 61 77 123 151 136 165 24 27
99 147 135 217 29 59 132 215 152 233 10 8 72 123 138 254 84 166 136 257 170
295 60 71 70 90 64 124 -6 30 41 136 98 224 19 28 51 77 71 110 20 32 85 110
144 173 58 63 135 150 171 193 67 80 98 101 192 132 44 14 78 40 185 137 146
134 202 207 211 277 10 75 13 84 48 138 41 63 79 231 83 359 1 57 11 110 32
180 17 54 48 153 68 219 20 66 44 136 54 156 16 31 32 85 54 182 5 20 3 27 -9
27 -8 0 -15 9 -15 20 0 22 16 27 23 8 8 -23 17 -2 24 51 l6 51 -216 0 c-178 0
-224 3 -258 17 -39 15 -43 15 -71 -2 -29 -17 -30 -17 -56 8 -21 19 -34 24 -58
20 l-32 -5 -6 -126 c-3 -70 -9 -166 -12 -214 l-6 -88 -195 0 -195 0 -97 35
c-53 20 -108 41 -123 47 -15 5 -62 48 -104 95 -73 79 -77 87 -78 132 -1 32 -8
55 -24 75 -12 16 -22 35 -22 42 0 19 -20 18 -42 -3 -36 -32 -43 -4 -43 160 0
135 2 155 20 183 11 17 45 69 76 115 51 77 128 217 161 295 7 18 47 68 89 113
111 119 103 120 317 -27 l173 -120 40 22 c31 17 38 25 34 41 -22 73 -22 85 0
148 28 82 41 350 37 767 -4 371 -11 438 -55 538 -24 52 -37 99 -41 145 -6 74
-31 127 -72 153 -26 18 -50 76 -59 146 -4 31 -18 64 -41 95 -18 27 -42 59 -51
72 -23 32 -27 126 -11 221 l13 75 -87 350 c-50 201 -92 351 -99 354 -7 2 -23
15 -35 28 -18 20 -35 25 -96 29 -40 3 -95 13 -123 22 -56 17 -186 19 -230 2
-15 -6 -62 -11 -106 -11 -43 0 -82 -5 -85 -10 -3 -5 -31 -9 -63 -9 -49 0 -61
4 -82 26 -21 22 -29 25 -66 19 -36 -5 -48 -2 -76 19 -98 75 -317 138 -367 106z
m-731 -5629 c-3 -46 14 -77 46 -85 19 -5 25 -13 25 -35 0 -28 1 -28 49 -23
l49 4 7 -48 c10 -73 12 -77 41 -70 21 6 32 -1 67 -37 24 -24 57 -52 75 -62 18
-11 32 -27 32 -37 0 -24 39 -49 67 -42 24 6 28 -2 23 -54 -1 -15 8 -27 29 -39
36 -21 51 -51 51 -104 0 -72 -40 -130 -105 -152 -7 -3 -6 -18 1 -46 10 -35 9
-44 -2 -48 -8 -3 -14 -15 -14 -27 0 -17 -6 -21 -31 -22 -41 -2 -66 -29 -79
-89 -7 -27 -15 -62 -20 -77 -7 -22 -4 -30 16 -43 13 -8 24 -20 24 -24 0 -5
-20 -22 -45 -38 -25 -15 -62 -41 -83 -57 -49 -37 -140 -83 -194 -97 -79 -20
-98 -21 -127 -9 -25 10 -35 8 -70 -9 -22 -12 -50 -21 -62 -21 -27 0 -59 -27
-59 -50 0 -26 -27 -44 -66 -44 -41 0 -45 -22 -12 -66 18 -25 20 -33 10 -55 -7
-14 -20 -25 -31 -25 -27 0 -36 -17 -36 -70 0 -32 -7 -54 -23 -74 -12 -16 -22
-39 -22 -52 0 -20 -4 -23 -27 -19 -16 2 -45 7 -65 10 -22 3 -42 14 -48 25 -8
16 -18 18 -62 13 -51 -5 -55 -3 -114 44 -34 26 -68 59 -75 73 -16 28 -76 90
-89 90 -5 0 -11 14 -15 31 -6 27 -10 30 -33 24 -15 -4 -31 -7 -36 -8 -11 -2
-13 109 -2 145 7 25 6 27 -26 30 -30 3 -34 8 -48 51 -10 30 -24 54 -38 61 -34
18 -51 49 -82 149 -16 51 -43 110 -59 132 -38 50 -39 70 -3 84 28 11 51 25 91
54 13 9 31 17 41 17 20 0 77 27 86 41 3 6 17 14 31 20 13 5 21 13 18 19 -3 5
6 19 20 32 14 12 25 32 25 45 0 13 17 42 39 66 21 23 53 67 70 98 17 31 40 64
51 74 11 10 20 28 20 40 0 12 9 30 21 41 11 10 27 33 34 50 17 42 45 57 79 44
20 -7 29 -6 38 6 43 52 47 54 73 42 30 -13 49 1 97 70 34 49 78 72 137 72 49
0 91 15 91 33 0 26 35 44 92 50 31 3 69 12 85 20 37 20 54 6 52 -42z"/>
</g>
</svg>
