<?xml version="1.0" standalone="no"?>
<!DOCTYPE svg PUBLIC "-//W3C//DTD SVG 20010904//EN"
 "http://www.w3.org/TR/2001/REC-SVG-20010904/DTD/svg10.dtd">
<svg version="1.0" xmlns="http://www.w3.org/2000/svg"
 width="1280.000000pt" height="1280.000000pt" viewBox="0 0 1280.000000 1280.000000"
 preserveAspectRatio="xMidYMid meet">
<metadata>
Created by potrace 1.15, written by Peter Selinger 2001-2017
</metadata>
<g transform="translate(0.000000,1280.000000) scale(0.100000,-0.100000)"
fill="#000000" stroke="none">
<path d="M6825 12247 l-230 -122 -230 -1 c-251 -1 -338 -8 -735 -59 -514 -67
-765 -134 -1145 -307 -472 -216 -1136 -628 -1445 -897 -210 -183 -525 -512
-761 -796 -167 -201 -188 -229 -219 -289 l-27 -51 -398 -210 c-347 -183 -400
-214 -413 -241 -18 -39 -10 -77 23 -110 47 -47 59 -43 557 220 l463 244 125 7
c261 14 604 59 815 105 358 80 781 209 1108 339 43 17 80 31 82 31 3 0 19 -28
36 -62 65 -130 153 -262 264 -395 28 -33 67 -84 89 -114 56 -80 223 -193 366
-249 128 -50 301 -142 384 -205 114 -85 236 -143 401 -190 241 -69 298 -92
346 -141 63 -64 63 -97 1 -409 -57 -287 -63 -338 -98 -835 -14 -201 -36 -511
-50 -690 -13 -179 -24 -346 -24 -372 0 -52 -8 -57 -50 -33 -14 8 -45 15 -70
15 -31 0 -110 26 -259 84 l-214 83 -12 46 c-15 60 -28 74 -95 104 -487 218
-689 300 -1014 409 -443 150 -437 148 -460 111 -9 -16 -6 -23 22 -47 18 -15
207 -116 420 -224 213 -107 448 -227 522 -266 321 -167 394 -201 451 -207 32
-3 71 -1 91 6 32 11 39 8 114 -34 43 -25 141 -77 216 -116 85 -44 139 -78 143
-89 8 -26 45 -50 128 -84 37 -16 67 -32 67 -36 0 -5 -22 -35 -48 -67 -60 -73
-83 -109 -99 -153 -31 -86 -43 -182 -47 -366 -5 -219 -3 -214 -104 -371 -38
-59 -79 -127 -91 -150 -26 -52 -51 -144 -53 -198 -1 -24 -20 -79 -49 -140 -47
-99 -107 -254 -192 -495 -67 -188 -77 -206 -176 -325 -153 -183 -168 -219
-135 -337 l17 -58 -56 -59 c-99 -108 -112 -170 -127 -616 -5 -165 -15 -370
-21 -455 -6 -85 -8 -233 -5 -328 l6 -174 -31 -11 c-42 -16 -34 -43 11 -39 94
8 104 -27 33 -119 -50 -66 -80 -88 -275 -198 -174 -98 -223 -119 -320 -137
-122 -23 -187 -68 -225 -155 -8 -18 -22 -28 -44 -33 -49 -10 -59 -23 -59 -81
0 -39 6 -60 22 -80 l22 -28 99 7 c144 10 197 22 340 77 70 27 158 56 196 64
116 24 318 29 486 12 148 -16 195 -14 258 12 46 18 94 59 107 92 17 40 7 151
-22 254 -33 115 -31 296 5 505 29 169 107 467 163 625 20 55 47 131 60 168 18
50 27 103 34 205 11 160 29 272 43 272 13 0 3 -217 -18 -373 -9 -65 -13 -127
-10 -138 13 -40 40 -14 90 87 80 159 92 207 112 459 l6 80 18 -40 c10 -22 43
-132 75 -245 31 -113 62 -223 68 -245 7 -24 18 -41 29 -43 15 -3 17 6 18 70 0
40 3 91 7 112 l7 40 15 -30 c11 -21 15 -65 15 -171 1 -78 4 -145 8 -149 11
-11 43 23 63 69 l19 42 6 -63 c3 -35 13 -70 21 -78 13 -13 18 -12 40 6 49 38
70 84 75 170 4 54 10 80 18 80 7 0 39 -20 71 -45 56 -44 87 -55 99 -35 3 5
-10 50 -30 101 -39 100 -43 141 -20 197 14 33 81 112 95 112 9 0 3 -290 -10
-451 -12 -152 -12 -159 10 -230 12 -41 29 -87 37 -103 8 -15 19 -71 24 -122
14 -155 32 -175 232 -260 114 -48 134 -46 199 19 66 64 122 148 228 342 101
183 133 254 200 432 28 76 94 224 146 328 79 158 98 205 112 279 16 79 21 92
46 107 29 17 29 17 72 -19 24 -20 47 -45 50 -57 4 -11 50 -66 103 -122 53 -55
120 -131 149 -167 29 -36 77 -85 107 -109 30 -23 54 -45 54 -49 1 -3 -20 -17
-46 -29 -80 -38 -135 -103 -172 -199 -17 -46 -41 -122 -53 -169 -20 -80 -21
-93 -9 -211 25 -257 39 -311 75 -297 9 4 28 30 42 59 l25 53 -5 -55 c-8 -77 8
-123 62 -184 26 -29 66 -76 90 -105 59 -70 84 -70 117 2 l25 52 -6 -86 c-6
-72 -3 -99 15 -157 24 -78 42 -102 66 -82 8 7 15 29 16 49 0 20 4 44 8 55 6
15 9 11 19 -20 36 -120 90 -135 180 -51 22 22 32 40 32 61 1 29 2 28 33 -25
59 -103 83 -114 119 -52 l22 36 18 -41 c19 -46 44 -55 58 -19 10 24 10 24 16
-18 21 -141 61 -325 85 -395 16 -47 50 -150 76 -230 64 -204 84 -240 134 -240
23 0 34 -9 54 -40 30 -47 57 -66 107 -75 56 -10 96 2 113 36 19 35 31 36 170
12 93 -15 104 -15 157 0 59 18 93 42 82 59 -3 5 -25 18 -48 28 -57 24 -85 55
-187 205 -48 72 -105 151 -127 175 -84 96 -102 129 -102 184 0 35 -7 60 -21
81 -11 17 -32 55 -46 85 -75 162 -123 276 -123 291 0 9 9 27 20 40 20 23 21
23 33 5 35 -53 44 -61 60 -48 9 7 19 32 22 55 4 23 11 52 16 65 l9 23 44 -26
c39 -23 46 -24 59 -11 22 23 30 123 17 210 -20 133 -113 371 -232 595 -101
191 -181 312 -369 552 -108 138 -189 268 -331 534 -157 291 -228 445 -423 905
-47 113 -100 229 -117 259 -25 45 -27 53 -11 46 270 -108 323 -119 418 -91
l48 15 116 -53 c125 -57 1901 -892 2090 -982 134 -64 169 -68 212 -25 31 32
38 71 17 115 -12 28 -43 44 -423 221 -121 56 -301 141 -400 188 -478 226
-1385 652 -1427 670 -27 11 -48 23 -48 27 0 4 9 27 19 51 11 24 40 123 65 220
25 97 62 220 81 275 118 327 142 425 199 809 52 349 61 449 48 526 -40 234
-353 823 -507 955 -73 61 -84 85 -94 197 -6 63 -22 131 -51 217 -79 237 -136
312 -316 419 -142 85 -191 123 -399 306 -342 300 -326 278 -333 450 -4 96 -1
123 22 210 33 127 127 320 165 339 18 10 35 35 55 83 42 102 44 129 11 163
-24 25 -29 40 -36 121 -11 121 -17 152 -40 226 -39 122 -187 260 -327 304 -55
17 -101 22 -262 26 -232 6 -274 -1 -442 -78 -62 -28 -123 -51 -135 -50 -12 0
-30 -10 -41 -24 l-19 -24 -11 37 c-14 45 -99 155 -115 149 -25 -8 -84 -308
-71 -365 15 -70 66 -162 90 -162 23 0 36 -70 31 -175 -3 -55 -8 -117 -12 -138
-6 -29 -3 -42 10 -57 16 -18 17 -27 6 -88 -24 -140 -16 -212 25 -212 10 0 14
-13 14 -40 0 -31 5 -43 24 -55 13 -8 31 -33 41 -54 16 -37 16 -40 0 -65 -17
-26 -17 -28 17 -96 19 -39 32 -70 30 -70 -3 0 -50 19 -106 41 -128 53 -207 59
-422 34 l-152 -18 -48 26 c-195 104 -303 146 -374 147 -75 0 -173 20 -207 41
-19 12 -61 59 -94 106 -69 97 -87 117 -144 158 -22 16 -98 86 -170 156 -71 70
-146 138 -167 151 l-36 25 66 38 c417 242 1296 936 1584 1252 65 71 220 293
233 333 3 9 103 68 233 136 125 65 239 131 255 146 38 37 37 89 -2 129 -49 48
-70 42 -326 -94z m1412 -4319 c53 -57 173 -258 307 -510 31 -59 90 -161 131
-227 42 -66 92 -154 112 -197 l37 -77 -12 -196 c-7 -108 -17 -247 -22 -310 -7
-75 -7 -127 0 -150 14 -52 12 -88 -10 -193 -46 -207 -108 -417 -136 -453 -14
-19 -24 -20 -242 -16 -125 1 -228 4 -230 6 -1 1 -14 49 -28 106 -32 133 -85
281 -140 390 -41 83 -77 124 -133 153 -33 18 -75 74 -194 258 l-95 147 9 48
c25 131 68 246 227 598 144 321 195 424 265 532 88 135 103 144 154 91z"/>
</g>
</svg>
