<?xml version="1.0" standalone="no"?>
<!DOCTYPE svg PUBLIC "-//W3C//DTD SVG 20010904//EN"
 "http://www.w3.org/TR/2001/REC-SVG-20010904/DTD/svg10.dtd">
<svg version="1.0" xmlns="http://www.w3.org/2000/svg"
 width="1080.000000pt" height="1280.000000pt" viewBox="0 0 1080.000000 1280.000000"
 preserveAspectRatio="xMidYMid meet">
<metadata>
Created by potrace 1.15, written by Peter Selinger 2001-2017
</metadata>
<g transform="translate(0.000000,1280.000000) scale(0.100000,-0.100000)"
fill="#000000" stroke="none">
<path d="M7153 12552 c-16 -10 -188 -276 -318 -493 -205 -340 -334 -620 -379
-821 -44 -194 -80 -551 -96 -958 -12 -292 -27 -390 -62 -390 -31 0 -98 -77
-98 -114 0 -13 -43 -176 -95 -362 -53 -187 -132 -469 -177 -629 -44 -159 -84
-293 -87 -297 -8 -9 -286 174 -420 275 -35 26 -94 63 -131 82 -102 51 -299
172 -350 214 -67 56 -89 68 -181 102 -46 17 -130 56 -187 87 -57 31 -133 73
-170 92 l-67 35 -187 550 c-103 303 -187 556 -187 564 -1 11 3 11 17 -2 24
-22 56 -23 48 -2 -3 10 1 15 13 15 10 0 29 9 43 20 22 17 27 18 46 4 23 -16
43 -1 23 19 -18 18 -13 23 29 36 44 13 60 34 60 80 0 35 7 39 25 14 22 -29 36
-6 18 31 -11 25 -13 38 -5 52 10 17 11 17 23 -9 7 -15 16 -27 20 -27 16 0 18
33 2 57 -9 14 -16 39 -15 55 3 31 -25 77 -45 78 -7 0 -13 11 -13 24 0 13 -3
33 -7 43 -4 13 3 9 25 -11 23 -21 32 -25 32 -14 0 19 -50 89 -82 114 -30 24
-43 54 -23 54 9 0 12 6 9 15 -4 8 -1 15 5 15 6 0 11 -9 11 -19 0 -14 5 -18 21
-14 20 6 20 6 -2 29 -12 13 -28 24 -34 24 -17 0 -82 113 -110 191 -12 35 -26
73 -30 84 -8 19 -8 19 12 3 30 -27 35 -22 16 15 -9 17 -18 38 -19 46 -2 7 -17
37 -35 65 -18 28 -43 70 -57 94 -13 24 -35 48 -48 52 -22 9 -29 20 -25 43 0 4
-3 7 -7 7 -8 0 -32 43 -32 55 0 2 7 2 16 -2 31 -12 -14 44 -65 80 -25 19 -71
57 -102 85 -36 33 -66 52 -80 52 -13 -1 -53 5 -87 11 -38 7 -67 8 -70 3 -4 -5
-36 -23 -72 -40 -50 -24 -74 -30 -105 -26 -36 4 -38 3 -26 -12 16 -19 16 -18
-26 -40 -30 -15 -33 -15 -46 5 -14 19 -17 19 -48 5 -28 -12 -30 -15 -12 -15
35 -1 35 -17 1 -55 -26 -30 -33 -33 -42 -21 -7 9 -20 12 -33 9 -20 -6 -20 -7
-5 -34 14 -24 15 -31 4 -42 -11 -11 -17 -8 -34 15 l-20 27 -19 -24 c-25 -32
-24 -35 11 -82 32 -42 42 -71 12 -33 -13 15 -25 20 -37 15 -17 -6 -17 -7 0
-26 17 -19 17 -20 -1 -20 -16 -1 -14 -4 10 -25 20 -16 30 -34 33 -59 4 -40 -9
-46 -43 -21 -10 8 -22 15 -25 15 -12 0 8 -89 26 -116 19 -29 38 -104 26 -104
-3 0 -18 19 -33 43 -24 37 -25 43 -11 48 13 4 14 7 4 14 -19 11 -31 -13 -31
-62 0 -31 4 -43 14 -43 23 0 76 -59 76 -83 -1 -20 -2 -19 -16 6 -10 19 -21 27
-31 23 -8 -3 -17 -6 -19 -6 -13 0 0 -36 25 -68 17 -22 31 -56 35 -82 l7 -45
-37 48 c-20 26 -39 47 -41 47 -3 0 -2 -26 2 -57 7 -60 32 -104 89 -157 l31
-29 -29 17 -28 18 6 -49 c4 -26 6 -62 6 -80 0 -23 9 -39 35 -62 20 -17 39 -31
43 -31 9 0 72 -82 92 -119 l13 -25 -31 20 c-17 10 -31 23 -31 27 0 4 -20 25
-44 45 -24 21 -42 43 -40 48 2 6 -3 17 -12 24 -12 10 -15 10 -15 -2 0 -29 98
-145 139 -165 33 -16 47 -34 81 -99 22 -43 32 -69 21 -56 -18 21 -61 31 -61
14 0 -15 96 -102 113 -102 23 0 21 7 -10 36 l-28 25 32 -15 c18 -9 41 -16 52
-16 11 0 30 -13 43 -29 13 -16 33 -32 46 -36 24 -7 29 4 10 23 -17 17 1 15 36
-3 30 -16 62 -13 51 4 -8 15 40 43 66 39 24 -3 56 -90 311 -850 l93 -276 -24
-44 c-13 -24 -43 -72 -67 -108 -45 -68 -61 -104 -215 -465 -51 -121 -106 -240
-122 -264 -16 -23 -49 -82 -72 -130 -40 -81 -59 -132 -100 -276 -10 -33 -30
-86 -46 -117 -16 -32 -29 -63 -29 -69 0 -13 -79 -200 -91 -213 -4 -4 -211 158
-461 361 -249 203 -653 531 -898 727 -245 197 -464 375 -488 395 l-44 36 20
25 c13 17 21 46 24 87 4 45 12 69 30 93 24 30 24 34 13 93 -7 34 -19 79 -28
99 -9 22 -12 40 -6 43 15 10 10 51 -9 76 -10 13 -24 39 -31 57 -14 32 -73 92
-92 92 -6 0 -34 25 -63 55 -31 33 -60 55 -73 55 -11 0 -27 7 -34 17 -22 25
-109 60 -172 68 -45 6 -62 4 -83 -10 -14 -9 -51 -19 -82 -22 -111 -10 -190
-40 -247 -94 -29 -27 -63 -70 -76 -94 -14 -26 -35 -49 -51 -56 -17 -7 -40 -33
-59 -65 -44 -77 -51 -110 -34 -145 13 -24 13 -35 1 -83 -13 -47 -13 -61 0
-102 8 -26 14 -60 14 -75 0 -15 17 -65 39 -112 30 -65 49 -93 87 -123 26 -21
63 -53 83 -69 73 -62 158 -82 376 -90 74 -3 106 0 122 10 11 8 52 25 91 39
l70 24 138 -111 c286 -228 1494 -1210 1817 -1478 21 -16 25 -3 -67 -264 -14
-38 -32 -119 -41 -180 -9 -60 -25 -152 -35 -204 -12 -54 -20 -135 -20 -190 0
-53 -7 -143 -15 -201 -20 -146 -19 -252 4 -335 10 -39 22 -124 26 -190 6 -95
12 -129 30 -165 23 -46 57 -146 140 -414 33 -106 70 -194 127 -305 44 -86 93
-189 110 -229 17 -40 50 -99 73 -130 24 -31 66 -95 95 -142 29 -47 76 -114
105 -150 28 -36 64 -84 78 -107 14 -23 31 -44 37 -48 5 -3 29 -34 51 -68 57
-85 131 -160 214 -217 39 -26 107 -84 153 -129 46 -44 87 -81 91 -81 4 0 31
-26 59 -59 28 -32 87 -85 131 -117 45 -33 81 -64 81 -71 0 -6 -47 -242 -104
-525 -58 -282 -104 -513 -103 -514 3 -3 241 37 245 40 2 2 10 69 18 148 40
405 95 738 120 738 7 0 14 -4 16 -8 2 -4 21 -19 43 -32 22 -13 63 -41 90 -61
28 -20 79 -51 115 -69 71 -34 69 -33 127 -72 22 -14 82 -44 134 -66 52 -22
137 -63 190 -91 66 -35 120 -55 175 -66 43 -9 87 -20 97 -26 54 -30 253 -111
291 -118 70 -13 119 -42 128 -76 80 -289 239 -948 368 -1525 48 -211 88 -370
96 -376 8 -6 46 -14 86 -18 40 -4 75 -10 78 -15 3 -4 27 -11 53 -14 76 -10 79
-2 46 123 -15 58 -87 328 -159 600 -72 272 -178 672 -236 888 l-104 393 59 72
c105 130 161 208 196 276 19 36 62 109 95 161 88 141 215 372 244 443 14 34
34 80 46 102 11 21 20 48 20 60 0 11 7 29 15 39 8 10 22 42 31 70 9 28 20 55
24 60 5 5 113 -95 242 -222 l233 -230 112 57 112 56 -319 295 -320 295 5 43
c3 24 11 66 19 95 8 29 17 66 19 82 3 17 8 41 11 55 4 14 8 39 10 55 5 44 26
152 42 215 7 30 16 94 20 143 4 48 9 87 11 87 3 0 31 -14 62 -30 75 -41 167
-121 295 -261 107 -116 206 -199 283 -238 23 -11 81 -33 130 -47 77 -23 106
-27 233 -28 223 -1 303 25 347 114 12 25 23 41 23 35 1 -17 40 36 40 55 0 11
10 20 26 24 77 20 119 87 111 180 -5 69 -40 155 -82 204 -31 38 -120 92 -150
92 -45 1 -50 15 -22 63 46 78 122 101 287 84 131 -14 190 -27 355 -83 202 -67
279 -77 383 -45 117 35 218 126 231 208 6 37 0 114 -14 179 -7 31 -6 32 55 53
70 23 153 73 175 104 8 12 15 34 15 49 0 37 -33 124 -69 180 l-30 47 80 78
c85 83 159 182 159 215 0 11 -32 49 -76 91 -41 39 -80 79 -85 89 -16 30 14 81
72 123 30 21 67 50 83 64 37 34 76 116 76 162 0 32 -9 45 -62 99 -35 34 -141
125 -237 202 -246 199 -273 249 -182 326 27 23 52 50 55 60 4 10 -16 82 -44
160 l-50 142 30 0 c25 0 30 4 30 24 0 67 -106 453 -143 520 -12 23 -31 42 -42
44 -19 3 -45 42 -45 69 0 22 -38 53 -65 53 -14 0 -25 6 -25 13 0 19 -33 47
-54 47 -9 0 -20 10 -25 23 -12 30 -34 48 -65 51 -15 1 -37 12 -49 24 -15 15
-36 22 -61 22 -44 0 -73 14 -99 47 -11 14 -29 23 -46 23 -15 0 -36 9 -46 20
-13 15 -31 20 -66 20 -43 0 -52 4 -95 46 -42 42 -50 46 -81 41 -22 -4 -46 -1
-64 9 -16 8 -39 12 -52 9 -15 -4 -28 -1 -36 9 -16 18 -63 21 -93 5 -14 -8 -23
-8 -31 0 -15 15 -59 14 -83 -3 -12 -9 -34 -12 -54 -10 -75 10 -200 12 -205 3
-10 -16 -51 -10 -70 11 -20 22 -74 27 -93 8 -8 -8 -15 -8 -27 2 -9 8 -30 11
-53 8 -24 -4 -45 0 -57 8 -26 19 -48 18 -76 -4 -18 -16 -28 -17 -50 -8 -24 9
-33 7 -60 -13 -27 -20 -43 -24 -100 -23 -38 1 -71 -3 -74 -8 -3 -6 -17 -7 -30
-4 -16 4 -37 -1 -59 -14 -19 -11 -50 -20 -69 -19 -20 0 -44 -6 -54 -15 -11
-10 -28 -14 -45 -11 -17 3 -38 -1 -51 -10 -17 -11 -28 -12 -41 -5 -23 13 -62
2 -84 -22 -10 -12 -29 -20 -48 -20 -21 0 -38 -9 -56 -29 -19 -21 -38 -30 -76
-35 -27 -3 -61 -15 -75 -26 -14 -11 -34 -20 -45 -20 -25 0 -98 -69 -112 -104
-6 -16 -17 -26 -29 -26 -19 0 -61 -43 -61 -61 0 -15 -36 -46 -62 -54 -27 -9
-117 -98 -137 -137 -7 -15 -11 -36 -8 -47 3 -12 1 -21 -4 -21 -20 0 -49 -42
-49 -72 l0 -31 -52 51 c-29 27 -65 61 -79 74 -15 12 -66 67 -114 120 l-86 98
66 237 c98 346 302 1046 330 1132 30 89 31 122 5 176 l-20 42 20 58 c11 32 65
126 119 209 242 370 447 750 515 956 57 172 79 341 95 720 9 203 1 734 -11
746 -2 1 -9 0 -15 -4z m-4123 -1069 c0 -18 -10 -16 -26 5 -20 25 -17 34 6 20
11 -7 20 -18 20 -25z m59 -590 c1 -1 0 -7 -4 -13 -5 -8 -11 -5 -21 7 -19 25
-17 38 4 22 9 -7 19 -14 21 -16z m-82 -4830 c-3 -10 -5 -4 -5 12 0 17 2 24 5
18 2 -7 2 -21 0 -30z m531 -1550 c63 -95 81 -124 65 -108 -16 17 -133 183
-133 189 0 16 14 -1 68 -81z m92 -143 c6 -11 8 -20 6 -20 -3 0 -10 9 -16 20
-6 11 -8 20 -6 20 3 0 10 -9 16 -20z m50 -78 c0 -15 -2 -15 -10 -2 -13 20 -13
33 0 25 6 -3 10 -14 10 -23z m105 -136 c10 -17 14 -26 8 -21 -19 20 -80 101
-87 115 -13 26 60 -61 79 -94z m115 -151 c5 -14 16 -25 24 -25 8 0 16 -10 18
-22 2 -13 8 -23 15 -23 6 0 39 -30 73 -67 34 -38 59 -68 56 -68 -3 0 -35 27
-72 59 -79 71 -155 171 -129 171 3 0 10 -11 15 -25z m1686 -1210 c17 -13 16
-14 -13 -4 -34 11 -42 19 -20 19 7 0 22 -7 33 -15z"/>
<path d="M3408 12053 c6 -2 18 -2 25 0 6 3 1 5 -13 5 -14 0 -19 -2 -12 -5z"/>
<path d="M2950 11595 c0 -8 7 -15 15 -15 8 0 15 4 15 9 0 5 -7 11 -15 15 -9 3
-15 0 -15 -9z"/>
</g>
</svg>
