<?xml version="1.0" standalone="no"?>
<!DOCTYPE svg PUBLIC "-//W3C//DTD SVG 20010904//EN"
 "http://www.w3.org/TR/2001/REC-SVG-20010904/DTD/svg10.dtd">
<svg version="1.0" xmlns="http://www.w3.org/2000/svg"
 width="1280.000000pt" height="989.000000pt" viewBox="0 0 1280.000000 989.000000"
 preserveAspectRatio="xMidYMid meet">
<metadata>
Created by potrace 1.15, written by Peter Selinger 2001-2017
</metadata>
<g transform="translate(0.000000,989.000000) scale(0.100000,-0.100000)"
fill="#000000" stroke="none">
<path d="M10053 9878 c-2 -5 -13 -8 -23 -8 -11 0 -31 -5 -45 -12 -24 -11 -25
-15 -25 -98 l0 -86 -41 -22 c-37 -20 -55 -22 -205 -22 -90 0 -164 -4 -164 -9
0 -5 -8 -11 -17 -14 -31 -10 -167 -88 -190 -110 -17 -15 -41 -21 -98 -25 -41
-2 -75 -9 -75 -14 0 -5 -4 -7 -9 -4 -5 3 -14 -1 -21 -9 -7 -8 -20 -15 -30 -15
-27 0 -67 -47 -78 -93 -11 -42 -43 -87 -63 -87 -6 0 -8 -4 -5 -9 3 -5 -1 -11
-9 -15 -8 -3 -15 -12 -15 -20 0 -17 -22 -26 -66 -26 -19 0 -34 -4 -34 -10 0
-5 -6 -10 -14 -10 -8 0 -17 -4 -20 -9 -3 -4 6 -6 19 -3 14 2 25 8 25 13 0 5
16 9 35 9 21 0 42 7 53 18 58 61 94 112 103 147 19 70 21 71 173 65 119 -4
139 -3 159 12 12 10 28 18 35 18 6 0 12 5 12 10 0 6 7 10 15 10 14 0 89 38
130 66 14 10 61 14 178 14 219 0 223 2 230 150 l2 55 342 3 343 2 39 -24 c21
-14 41 -31 43 -38 4 -10 63 -12 289 -10 239 2 296 0 359 -14 55 -13 81 -24 97
-43 21 -24 22 -25 24 -6 1 11 5 4 9 -15 l7 -35 2 38 c1 28 -5 44 -24 63 -14
14 -25 27 -25 29 0 2 -11 15 -25 29 -51 51 -117 58 -432 50 -218 -5 -283 -4
-283 5 0 7 -4 10 -10 6 -5 -3 -16 5 -25 18 -8 13 -33 32 -55 42 -22 10 -40 24
-40 31 0 11 -56 14 -276 16 -152 2 -278 0 -281 -4z m-240 -265 c-45 -2 -122
-2 -170 0 -48 1 -11 3 82 3 94 0 133 -2 88 -3z m-462 -127 c-22 -23 -67 -44
-55 -25 3 5 11 9 18 9 7 0 21 9 31 20 10 11 20 20 23 20 3 0 -5 -11 -17 -24z
m-224 -72 c-3 -3 -12 -4 -19 -1 -8 3 -5 6 6 6 11 1 17 -2 13 -5z"/>
<path d="M9980 9663 c0 -139 -8 -143 -234 -143 -109 0 -167 -4 -172 -11 -3 -6
-47 -30 -96 -54 -49 -24 -103 -56 -119 -71 -28 -27 -36 -29 -114 -29 -46 0
-79 -3 -73 -6 5 -3 -6 -13 -25 -23 -42 -19 -51 -20 -41 -3 4 7 3 9 -2 4 -5 -5
-9 -14 -9 -19 0 -6 -6 -13 -14 -16 -9 -3 -11 0 -6 8 5 8 4 11 -3 6 -6 -4 -9
-13 -6 -20 3 -8 1 -17 -5 -21 -6 -3 -11 -13 -11 -22 0 -32 -42 -104 -57 -99
-8 3 -11 1 -8 -4 3 -6 2 -10 -2 -10 -5 0 -17 -13 -26 -30 -15 -25 -24 -30 -58
-30 -25 0 -42 -5 -45 -14 -3 -8 -11 -13 -19 -10 -7 3 -15 -2 -19 -11 -3 -9
-10 -13 -16 -10 -5 3 -10 0 -10 -7 0 -8 -34 -41 -77 -73 -42 -33 -95 -78 -117
-101 -55 -55 -92 -78 -148 -95 -27 -7 -48 -17 -48 -22 0 -4 -4 -6 -9 -3 -5 3
-14 -1 -21 -9 -7 -8 -17 -15 -23 -15 -6 0 -18 -6 -26 -13 -9 -7 -47 -23 -86
-36 -38 -13 -76 -28 -82 -33 -18 -15 -16 -93 2 -108 17 -14 22 -135 5 -145 -5
-3 -10 -11 -10 -18 0 -34 29 37 33 79 2 27 4 4 5 -51 2 -84 -1 -106 -18 -135
-11 -19 -26 -46 -32 -60 -13 -25 -36 -47 -73 -65 -11 -6 -31 -30 -44 -54 -13
-24 -41 -60 -62 -80 -41 -38 -46 -39 -254 -72 -67 -10 -112 -27 -235 -88 -30
-15 -88 -34 -128 -41 -55 -10 -72 -17 -67 -28 3 -7 5 -28 5 -46 0 -18 8 -42
18 -54 9 -11 25 -29 34 -41 9 -11 18 -37 20 -57 l3 -38 515 -328 515 -328
1838 0 1838 0 -2 98 c-1 54 1 104 5 110 5 8 -1 12 -18 12 -31 0 -32 5 -4 72
19 49 21 71 21 278 0 192 -2 230 -16 257 -15 27 -16 52 -11 165 3 73 12 158
20 189 24 96 19 135 -32 246 -13 28 -24 55 -24 58 0 4 -20 27 -45 52 -61 60
-74 81 -76 130 -2 23 -8 44 -14 47 -6 2 -12 21 -13 42 -3 52 -11 76 -23 69 -5
-4 -9 10 -9 29 0 19 -4 37 -9 40 -5 3 -12 22 -15 41 -4 19 -11 35 -15 35 -5 0
0 -25 11 -56 20 -57 18 -90 -3 -38 -6 16 -15 36 -19 45 -5 9 -12 56 -16 103
-4 47 -11 86 -15 86 -5 0 -9 25 -9 54 0 45 -5 60 -26 83 -34 36 -104 139 -104
152 0 6 -4 11 -10 11 -16 0 41 -97 88 -147 32 -35 42 -54 42 -80 0 -22 -4 -32
-11 -27 -18 10 -75 106 -88 147 -8 22 -19 37 -28 37 -9 0 -14 3 -10 6 7 7 -15
34 -24 28 -12 -7 -18 183 -8 220 9 31 7 42 -8 63 -10 14 -22 33 -28 42 -5 9
-18 22 -27 29 -10 7 -18 19 -18 25 0 7 -26 19 -57 27 -45 12 -126 15 -361 15
-298 0 -303 0 -320 21 -41 52 -56 54 -417 54 l-335 0 0 -67z m1857 -1025 c-3
-8 -6 -5 -6 6 -1 11 2 17 5 13 3 -3 4 -12 1 -19z"/>
<path d="M9128 9333 c7 -3 16 -2 19 1 4 3 -2 6 -13 5 -11 0 -14 -3 -6 -6z"/>
<path d="M11562 9280 c-1 -16 0 -30 2 -30 2 0 9 14 15 30 7 23 7 30 -2 30 -7
0 -14 -13 -15 -30z"/>
<path d="M9031 9244 c0 -11 3 -14 6 -6 3 7 2 16 -1 19 -3 4 -6 -2 -5 -13z"/>
<path d="M8760 9107 c-14 -12 -49 -40 -77 -61 -29 -21 -53 -43 -53 -49 0 -6 6
-4 13 5 6 8 37 33 67 55 49 35 89 73 79 73 -2 0 -15 -10 -29 -23z"/>
<path d="M8888 9083 c12 -2 30 -2 40 0 9 3 -1 5 -23 4 -22 0 -30 -2 -17 -4z"/>
<path d="M8602 8979 c-15 -24 -130 -109 -147 -109 -19 0 -143 -58 -150 -70 -3
-6 -16 -10 -28 -10 -12 0 -31 -8 -42 -17 l-20 -16 20 8 c11 4 29 10 40 13 11
2 27 10 35 17 22 17 128 65 144 65 28 0 177 122 165 135 -3 2 -10 -5 -17 -16z"/>
<path d="M8180 8755 c-14 -8 -20 -14 -14 -15 5 0 19 7 30 15 24 18 16 19 -16
0z"/>
<path d="M8123 8660 c0 -30 2 -43 4 -27 2 15 2 39 0 55 -2 15 -4 2 -4 -28z"/>
<path d="M11956 8477 c3 -10 9 -15 12 -12 3 3 0 11 -7 18 -10 9 -11 8 -5 -6z"/>
<path d="M12011 8350 c6 -16 15 -30 19 -30 5 0 2 14 -6 30 -9 17 -17 30 -19
30 -2 0 1 -13 6 -30z"/>
<path d="M8089 8253 c-13 -16 -12 -17 4 -4 9 7 17 15 17 17 0 8 -8 3 -21 -13z"/>
<path d="M8035 8220 c-26 -28 -15 -31 12 -3 12 13 19 23 14 23 -4 0 -16 -9
-26 -20z"/>
<path d="M7949 8103 l-24 -28 28 24 c15 14 27 26 27 28 0 8 -8 1 -31 -24z"/>
<path d="M7828 8043 c12 -2 30 -2 40 0 9 3 -1 5 -23 4 -22 0 -30 -2 -17 -4z"/>
<path d="M7768 8033 c6 -2 18 -2 25 0 6 3 1 5 -13 5 -14 0 -19 -2 -12 -5z"/>
<path d="M7693 8023 c9 -2 25 -2 35 0 9 3 1 5 -18 5 -19 0 -27 -2 -17 -5z"/>
<path d="M7623 8013 c9 -2 25 -2 35 0 9 3 1 5 -18 5 -19 0 -27 -2 -17 -5z"/>
<path d="M7253 7830 c0 -36 2 -50 4 -32 2 17 2 47 0 65 -2 17 -4 3 -4 -33z"/>
<path d="M2828 6367 l-3 -1385 -25 -21 c-23 -20 -35 -21 -155 -19 l-129 3 -21
-70 c-16 -52 -33 -82 -65 -117 l-44 -48 -108 0 c-60 0 -108 -4 -108 -9 0 -5
20 -30 44 -55 24 -25 39 -46 34 -46 -5 0 -8 -5 -6 -12 3 -7 -5 -22 -16 -35
-17 -20 -29 -23 -91 -23 -64 0 -73 3 -103 30 -18 17 -37 30 -43 30 -5 0 -9 5
-9 11 0 9 -19 9 -67 3 -38 -4 -129 -8 -203 -8 -74 -1 -142 -5 -150 -11 -22
-14 -350 -20 -350 -6 0 6 -6 11 -13 11 -7 0 -31 18 -52 40 -23 24 -48 40 -62
40 -27 0 -129 32 -190 61 -41 18 -43 21 -43 64 0 33 -4 45 -15 45 -8 0 -15 5
-15 10 0 6 -7 10 -15 10 -18 0 -20 37 -3 92 7 26 8 42 2 46 -6 4 -18 24 -27
45 -10 20 -24 37 -31 37 -8 0 -19 7 -26 15 -7 8 -15 13 -19 10 -8 -4 -81 19
-113 36 -11 6 -18 18 -16 27 2 9 -8 29 -21 45 -21 23 -32 27 -75 27 -48 -1
-53 -3 -83 -43 -17 -23 -39 -62 -49 -87 -18 -45 -70 -140 -83 -150 -3 -3 -18
-21 -33 -42 -44 -59 -57 -68 -96 -68 -20 0 -56 -7 -79 -16 -50 -19 -47 -28 22
-69 24 -14 50 -33 57 -43 7 -9 40 -35 72 -57 69 -46 112 -87 121 -115 4 -11
13 -20 21 -20 10 0 14 -13 14 -50 0 -49 2 -52 74 -124 62 -61 76 -82 90 -130
31 -105 39 -151 43 -246 l4 -96 50 -49 c27 -27 52 -59 55 -70 3 -11 23 -33 45
-48 21 -16 39 -35 39 -43 0 -8 6 -14 14 -14 19 0 105 -86 117 -117 5 -13 9
-91 9 -172 0 -159 6 -185 54 -250 14 -19 26 -40 26 -46 0 -5 10 -21 23 -35 12
-14 28 -37 36 -52 8 -15 35 -48 61 -72 27 -25 51 -60 59 -84 14 -40 119 -179
150 -196 9 -5 22 -16 29 -23 7 -7 19 -16 26 -20 14 -9 82 -147 90 -185 3 -14
16 -48 27 -75 12 -27 21 -64 20 -86 -2 -21 3 -44 9 -52 6 -7 14 -40 17 -72 3
-32 17 -81 31 -110 24 -49 25 -57 15 -106 -6 -30 -24 -74 -40 -98 -30 -48 -37
-56 -96 -122 -76 -85 -80 -88 -101 -83 -18 4 -133 9 -160 7 -6 -1 -5 -6 2 -13
7 -7 12 -33 12 -58 0 -30 8 -60 25 -90 14 -25 28 -53 32 -62 3 -10 9 -18 13
-18 4 0 26 -16 49 -36 40 -36 41 -37 41 -104 0 -54 4 -70 20 -85 11 -10 20
-23 20 -28 0 -5 13 -22 29 -38 16 -15 32 -37 36 -50 4 -12 21 -38 39 -57 17
-19 43 -48 59 -65 17 -19 27 -41 27 -62 0 -38 -28 -125 -41 -125 -5 0 -9 -4
-9 -10 0 -5 -16 -30 -35 -56 -19 -25 -35 -52 -35 -60 0 -18 40 -74 53 -74 5 0
22 -14 37 -30 33 -36 49 -38 43 -7 -2 12 7 42 21 67 15 25 29 52 32 61 7 21
46 29 144 29 92 0 90 2 90 -110 0 -111 0 -110 80 -110 52 0 73 -4 86 -18 10
-9 21 -17 25 -17 4 0 11 -3 15 -8 4 -4 55 -7 114 -7 98 0 108 -2 128 -23 25
-27 28 -60 8 -98 l-14 -27 48 -6 c57 -8 106 -31 120 -56 14 -27 65 -43 160
-50 l85 -6 2015 1282 c1108 704 2335 1484 2725 1733 l710 451 1478 0 c1175 0
1477 3 1477 13 0 6 23 39 50 72 28 33 60 79 72 104 40 77 43 81 53 81 10 0 65
107 65 127 0 19 485 488 523 506 21 10 43 27 50 38 8 12 32 23 69 31 39 8 58
17 58 27 0 8 3 11 7 8 3 -4 47 32 97 79 50 48 122 116 160 152 38 36 64 68 58
70 -31 10 -5 113 43 166 19 22 35 45 35 52 0 6 7 17 15 24 19 16 31 96 16 114
-8 9 -13 67 -14 163 -2 123 1 153 15 178 9 17 28 53 42 80 26 53 50 87 79 113
9 9 17 21 17 27 0 7 11 22 25 35 25 23 26 28 19 101 -5 61 -3 84 10 110 l16
32 -1107 -6 c-610 -4 -1612 -10 -2228 -14 l-1121 -6 -701 446 -702 447 -143 1
c-79 0 -165 5 -193 10 -27 6 -75 14 -105 19 -112 17 -174 39 -183 63 -2 7 -31
21 -63 31 -33 10 -72 24 -89 30 -67 28 -105 36 -177 36 -61 0 -79 4 -99 21
-110 94 -137 120 -172 164 -22 28 -42 49 -44 47 -3 -2 -11 5 -18 15 -12 16
-33 18 -188 21 -146 3 -176 1 -189 -12 -9 -8 -18 -13 -20 -10 -3 2 -11 -2 -18
-11 -7 -8 -16 -15 -21 -15 -4 0 -34 -27 -66 -61 -51 -53 -61 -70 -79 -137 -12
-43 -28 -97 -37 -122 -11 -28 -17 -77 -17 -130 0 -107 -18 -146 -81 -177 -24
-12 -50 -27 -56 -33 -7 -6 -15 -10 -18 -10 -3 0 -9 0 -13 0 -4 0 -16 -25 -27
-56 -10 -31 -25 -58 -31 -61 -7 -3 -10 -11 -7 -19 3 -8 0 -14 -7 -14 -6 0 -9
-4 -5 -9 11 -19 -34 -31 -110 -31 -68 0 -77 -2 -82 -20 -3 -11 -8 -20 -12 -20
-4 0 -13 -17 -20 -37 -8 -21 -19 -45 -26 -53 -7 -8 -16 -25 -19 -37 -7 -22
-12 -23 -114 -23 l-107 0 0 -50 c0 -42 -4 -53 -30 -77 -17 -16 -38 -39 -47
-52 -22 -32 -72 -40 -249 -41 -111 0 -154 4 -175 15 -16 8 -49 15 -74 15 -34
0 -52 6 -72 25 -15 14 -33 25 -39 25 -7 0 -27 -11 -45 -25 -40 -31 -63 -31
-106 -3 l-34 23 4 91 c3 71 1 100 -12 125 -9 17 -16 42 -16 54 0 26 48 125 61
125 5 0 40 32 79 72 70 72 70 72 70 128 0 35 -7 71 -19 96 -11 22 -23 53 -26
67 -4 15 -15 33 -24 40 -9 6 -28 28 -43 48 -22 30 -26 42 -19 65 18 64 -34
204 -76 204 -7 0 -13 7 -13 15 0 8 -6 15 -13 15 -7 0 -19 16 -27 35 -8 19 -17
35 -21 35 -4 0 -12 12 -18 28 -18 46 -51 97 -61 95 -6 -2 -10 4 -10 12 0 8 -9
19 -20 25 -12 7 -22 25 -26 50 -4 22 -12 40 -18 40 -14 0 -66 47 -66 60 0 6
-3 9 -7 9 -27 -4 -53 3 -53 15 0 8 -20 19 -47 26 -27 7 -56 14 -65 17 -17 4
-18 -70 -20 -1380z"/>
<path d="M8135 2632 c-144 -92 -907 -579 -1698 -1082 -1375 -875 -1435 -915
-1397 -918 27 -2 43 -9 50 -23 6 -11 21 -19 36 -19 14 0 32 -7 40 -15 12 -12
45 -15 159 -15 l144 0 15 28 c9 15 21 40 28 56 l13 29 211 -7 c229 -7 353 -25
396 -56 19 -14 54 -23 110 -29 47 -4 104 -18 130 -30 26 -11 51 -21 57 -21 6
0 24 -14 41 -30 43 -42 93 -42 132 2 15 17 28 39 28 47 1 9 9 34 20 56 11 22
19 46 20 53 0 17 74 16 89 -2 16 -19 89 -27 298 -35 142 -5 184 -3 188 6 2 7
1 13 -4 13 -5 0 -12 8 -15 18 -12 32 -33 62 -39 55 -4 -3 -7 -1 -7 5 0 7 -9
12 -21 12 -51 0 10 91 128 190 16 13 266 13 279 0 6 -6 28 -20 50 -31 57 -31
244 -39 306 -14 43 17 116 38 195 55 39 8 76 25 153 67 31 17 136 66 173 82
17 7 34 24 40 41 6 17 17 30 23 30 7 0 14 7 18 15 3 8 9 14 13 13 8 -3 104 32
149 54 12 6 30 27 40 48 15 30 26 39 64 49 97 27 110 33 153 71 25 22 50 40
56 40 7 0 14 7 17 15 3 8 21 17 40 21 18 3 38 12 45 20 6 8 16 14 21 14 5 0
33 24 63 54 29 29 76 70 104 90 28 21 51 41 51 45 0 4 21 16 47 26 27 11 70
40 97 65 126 116 176 168 176 183 0 10 4 17 8 17 4 0 14 15 20 34 11 31 29 47
57 51 6 0 9 6 8 13 -2 7 3 12 10 12 8 0 36 16 63 35 27 19 55 35 61 35 7 0 13
4 13 9 0 5 25 21 55 37 30 16 55 33 55 37 0 19 54 120 76 145 14 14 32 41 41
59 11 25 29 39 67 56 28 12 57 20 64 19 6 -2 12 2 12 8 0 5 5 10 11 10 16 0
89 60 89 72 0 6 16 26 35 44 18 19 32 34 30 34 -2 0 16 19 40 43 25 23 45 45
45 50 0 4 -478 7 -1062 7 l-1063 0 -260 -168z"/>
</g>
</svg>
